<svg xmlns="http://www.w3.org/2000/svg" width="18.002" height="20.707" viewBox="0 0 18.002 20.707">
    <g id="surface1" transform="translate(-.5)">
        <path id="Контур_55" fill="#e1e1e1" d="M10.1 0a8.413 8.413 0 0 0-8.4 8.3l-1 2.918a2.192 2.192 0 0 0 .049 1.936.947.947 0 0 0 .777.4h.173v1.018a2.234 2.234 0 0 0 2.231 2.231 1.019 1.019 0 0 1 1.018 1.018v.65a2.234 2.234 0 0 0 2.231 2.231h4.549a2.234 2.234 0 0 0 2.231-2.231v-2.6A8.4 8.4 0 0 0 10.1 0zm4.97 7.817l-2.046 1.995.477 2.783a.607.607 0 0 1-.59.742.6.6 0 0 1-.282-.07l-2.529-1.33-2.531 1.33a.607.607 0 0 1-.88-.639l.483-2.816-2.046-1.995a.607.607 0 0 1 .336-1.035l2.827-.411L9.554 3.81a.607.607 0 0 1 1.088 0l1.264 2.562 2.827.411a.607.607 0 0 1 .336 1.035zm0 0" data-name="Контур 55"/>
    </g>
</svg>
