<?xml version="1.0" encoding="utf-8"?>
<!-- Generator: Adobe Illustrator 23.1.0, SVG Export Plug-In . SVG Version: 6.00 Build 0)  -->
<svg version="1.1" id="Слой_1" xmlns="http://www.w3.org/2000/svg" xmlns:xlink="http://www.w3.org/1999/xlink" x="0px" y="0px"
	 viewBox="0 0 850.4 850.4" style="enable-background:new 0 0 850.4 850.4;" xml:space="preserve">
<style type="text/css">
	.st0{fill:#DBDFFF;}
	.st1{fill:#E6E9FF;}
	.st2{fill:#EBB376;}
	.st3{fill:#407BFF;}
	.st4{opacity:0.2;enable-background:new    ;}
	.st5{fill:#263238;}
	.st6{opacity:0.6;fill:#FFFFFF;enable-background:new    ;}
	.st7{fill:none;stroke:#263238;stroke-width:0.488;stroke-linecap:round;stroke-linejoin:round;}
	.st8{fill:#D58745;}
	.st9{fill:none;stroke:#263238;stroke-width:0.708;stroke-linecap:round;stroke-linejoin:round;}
	.st10{fill:#FFFFFF;}
	.st11{fill:#DE5753;}
	.st12{fill:none;stroke:#FFFFFF;stroke-width:0.5;stroke-linecap:round;stroke-linejoin:round;}
	.st13{opacity:0.2;fill:#FFFFFF;enable-background:new    ;}
	.st14{opacity:0.2;}
	.st15{opacity:0.3;}
	.st16{opacity:0.3;enable-background:new    ;}
</style>
<g id="Group_1061_1_" transform="translate(-834.602 -253)">
	<path id="Path_249_1_" class="st0" d="M1194.8,432.9c-84.9,34.3-206-80.4-276.4,53.3s-64.1,226.7,37.9,228.5
		c102.1,1.8,149-75.9,199.6,39.7c50.6,115.6,504,52.4,396.6-113.8s-162.6-55.1-198.7-114.7c-36.1-59.6,65.1-232.2-44.3-196
		C1200.2,366,1279.7,398.5,1194.8,432.9z"/>
	<path id="Path_250_1_" class="st1" d="M1254.9,932.7c87.2,4.8,135,161.6,256.5,69.1s159.7-180.5,75-225.7
		c-84.7-45.2-160.3,5.9-148.7-121.7s-397.9-263.2-385.5-64.9s110.5,119.9,112.9,190c2.4,70.1-163,185.1-54.5,198.6
		C1219.1,991.7,1167.7,927.9,1254.9,932.7z"/>
	<g id="Group_445_1_" transform="translate(834.909 253)">
		<g id="Character_2_" transform="translate(0 0)">
			<g id="Group_422_1_">
				<path id="Path_185_1_" class="st2" d="M369.5,189.3c23.7-4.3,19.4,80.2,28.7,100.2c9.3,19.9,67.3,71.3,67.3,71.3
					s25.2,2.1,29.2,4.2c4,2.1,4.4,16.9,1.2,16.9c-3.3,0-30.7,0.2-34.9-2c-4.1-2.2-6.2-10.9-6.2-10.9s-61-35.7-73.6-66
					c-10.5-25.2-20.3-68.8-23.1-84.3C355.3,203.2,363.5,190.4,369.5,189.3z"/>
				<path id="Path_186_1_" class="st3" d="M119.8,493.3c0,0,14.9-14.9,39.2,4.7s37.2,46.6,78.7,32.4s105.1,25.6,117.9-3.1
					c0,0-21.5-56.5-63.4-74C250.3,435.8,141.4,477.1,119.8,493.3z"/>
				<path id="Path_187_1_" class="st2" d="M258,408.8c-0.4,9.3-1.3,29.7-3.2,50.6c-2.4,28-6.3,57.1-12.2,62.4
					c-0.6,0.5-1.3,1.2-2.1,1.8c-2.9,2.4-7,5.5-12.1,9.3c-12.9,9.4-31.9,22.5-52.5,36.5c-2.9,2-5.8,3.9-8.8,5.9
					c-15.4,10.4-31.4,21-46.1,30.8c-5.8,3.8-11.4,7.6-16.7,11c-25.1,16.6-43.6,28.5-43.6,28.5l8.2,11.8c8.5-4.7,17.4-8.8,26.4-12.4
					v0c4.8-1.9,10-4.2,15.5-6.7c10.9-4.9,22.9-10.7,35.5-17c3.7-1.9,7.6-3.8,11.4-5.7c27.8-14.1,57.6-30.2,82-45.9
					c12.9-8,25-17.1,36.3-27.2c7.6-7.1,12.7-13.8,14.5-19.7c5.4-17.9,10.5-46.2,14.2-74.1c1.9-13.9,3.5-27.6,4.9-39.8L258,408.8z"/>
				<path id="Path_188_1_" class="st3" d="M65.2,638.8c1.8-0.4,5.5,22.3,5.5,22.3s-10.9,16.9-11,31c-0.1,14.1-9.8,8.4-13.2-6.5
					c-3.4-14.9-6-26.4-8.4-37S46.2,642.6,65.2,638.8z"/>
				<path id="Path_189_1_" class="st4" d="M314,364.7c0,0-3.5,41.3-9.3,83.9c-3.7,27.9-8.8,56.2-14.2,74.1
					c-1.8,5.9-6.9,12.6-14.5,19.7c-11.3,10.1-23.4,19.2-36.3,27.2c-4.3-12.6-8.2-25.6-11.3-36.7c5.1-3.7,9.2-6.9,12.1-9.3
					c0.8-0.6,1.5-1.2,2.1-1.8c5.9-5.3,9.8-34.4,12.2-62.4c2.5-28.5,3.4-55.9,3.4-55.9L314,364.7z"/>
				<path id="Path_190_1_" class="st5" d="M323.2,326.3l-78.4-12.9c2.4,0.4,17.6-33.3,21.1-45.3c4.8-16.6,8.5-48.3,5.3-68.8l0-0.1
					c-1.3-8.3,4.4-16.1,12.7-17.4c0.4-0.1,0.7-0.1,1.1-0.1c6.3-0.5,12.5-0.7,18.8-0.7c12.5-0.1,24.9,0.6,37.3,2.2
					c15.9,2.5,33.8,7.3,33.8,7.3s2.5,1.1,1.3,18.1C375,224.4,369,276.7,323.2,326.3z"/>
				<path id="Path_191_1_" class="st2" d="M352.5,167.1c0,0-10.1,6.5-11.8,10.8c-0.1,0.3-0.2,0.6-0.3,0.8c-0.5,2.5-0.8,4.9-1,7.4
					c2.9,8.6-8.1,13.6-8.1,13.6c-19.7-5.9-24.3-15.5-24.3-15.5c16.2-6.4,19.3-37.4,19.3-37.4l7.8,6L352.5,167.1z"/>
				<path id="Path_192_1_" class="st2" d="M367.8,632l-20.6-46l-28.1-62.6l-5-10.9l-21.7-47.4l-25.8-56.4h-59
					c7.7,26.1,23.2,55,39.2,80.4c15.7,25,32,46.7,42,59.5c6,7.7,9.7,12.1,9.7,12.1c12.2,27.4,25.9,54.2,41.1,80
					c5.9,10.2,11.8,20,17.3,29c20.6,33.3,37,56.5,37,56.5l12.7-7.7L367.8,632z"/>
				<path id="Path_193_1_" class="st3" d="M385.4,719.9c-0.7-1.7,20.9-9.6,20.9-9.6s18.7,7.4,32.6,4.9c13.8-2.6,10.2,8-3.9,14.2
					l-34.7,15.3C390.3,749,392.8,737.8,385.4,719.9z"/>
				<g id="Group_415_1_" transform="translate(24.737 73.125)">
					<path id="Path_194_1_" class="st3" d="M220,240.3c0,0-42.6,21.3-45.2,78.5c-1.4,31.8-79.8,101.4-79.8,101.4s3.2,11.5,25.3,12.2
						c22,0.7,63.3-23.7,92.3-16.9s26.4,17.6,49.3,12.8s46.6,1.2,68.9,26c0,0,10.1-82.1-32.9-142.9c0,0-3.4-16.2,0.4-58.1L220,240.3z
						"/>
				</g>
				<path id="Path_195_1_" class="st6" d="M244.8,313.4c0,0-42.6,21.3-45.2,78.5c-1.4,31.8-79.8,101.4-79.8,101.4
					s3.2,11.5,25.3,12.2c22,0.7,63.3-23.7,92.3-16.9s26.4,17.6,49.3,12.8s46.6,1.2,68.9,26c0,0,10.1-82.1-32.9-142.9
					c0,0-3.4-16.2,0.4-58.1L244.8,313.4z"/>
				<path id="Path_196_1_" class="st3" d="M246.7,309.2l76.5,17.1l-1,13.8l-84.4-22.3L246.7,309.2z"/>
				<path id="Path_197_1_" class="st4" d="M300.3,325.9c0,2.8-2.3,5.1-5.1,5.1c-2.8,0-5.1-2.3-5.1-5.1l0,0c0-2.8,2.3-5.1,5.1-5.1
					c0,0,0,0,0,0C298,320.8,300.3,323,300.3,325.9L300.3,325.9z"/>
				<path id="Path_198_1_" class="st4" d="M352.5,167.1c0,0-10.1,6.5-11.8,10.8c-0.1,0.3-0.2,0.6-0.3,0.8
					c-8.7-6.6-13.5-17.2-12.8-28.1l6.6,2.2L352.5,167.1z"/>
				<g id="Group_421_1_" transform="translate(62.387)">
					<path id="Path_199_1_" class="st7" d="M303.2,92.3c0,0,20.4-5.7,30.3,10.8s2,29-4.9,34.9"/>
					<path id="Path_200_1_" class="st5" d="M309.5,93.5c0,0,16.6,0.5,21.2,14.6s1.2,29.8-23.5,46.9c-24.7,17-45.6,0.7-55.3-10.7
						c-9.7-11.4-7.2-49.1,19.7-56.5C299.7,80,309.5,93.5,309.5,93.5z"/>
					<path id="Path_201_1_" class="st2" d="M293.6,98.2c21.1,2.9,26.4,15.1,25,37.1c-1.8,27.5-10.4,46-36.1,36.6
						C247.7,159.1,258.5,93.4,293.6,98.2z"/>
					<path id="Path_202_1_" class="st8" d="M305.1,132.2c1.3,3.4,2.9,6.6,5,9.6c-1.5,1.6-3.8,2.2-5.9,1.6L305.1,132.2z"/>
					<g id="Group_416_1_" transform="translate(31.862 16.167)">
						<path id="Path_203_1_" class="st5" d="M260.5,112.6c-0.2,1.7-1.3,3-2.5,2.9s-1.9-1.7-1.7-3.4c0.2-1.7,1.3-3.1,2.5-2.9
							C259.9,109.3,260.7,110.8,260.5,112.6z"/>
						<path id="Path_204_1_" class="st5" d="M258.3,109.2l4-1.1C262.2,108.2,260,111.1,258.3,109.2z"/>
					</g>
					<g id="Group_417_1_" transform="translate(38.401 16.792)">
						<path id="Path_205_1_" class="st5" d="M275.7,114c-0.2,1.7-1.3,3.1-2.5,2.9s-1.9-1.7-1.7-3.4c0.2-1.7,1.3-3.1,2.5-2.9
							S275.9,112.3,275.7,114z"/>
						<path id="Path_206_1_" class="st5" d="M273.4,110.7l4-1.1C277.4,109.6,275.2,112.6,273.4,110.7z"/>
					</g>
					<path id="Path_207_1_" class="st9" d="M294.2,114.1c-3.3-0.9-6.9-0.2-9.6,1.9"/>
					<path id="Path_208_1_" class="st9" d="M309.7,115.3c3-0.3,6,0.7,8.2,2.9"/>
					<path id="Path_209_1_" class="st5" d="M265.6,130.6c0,0,12.3-16,12.6-29.6c0,0,44.2-11.4,40.5,31.4c0,0,9.2-37.2-27-43
						c-36.2-5.8-43.3,47.4-26.7,65.8C265,155.2,258,140.7,265.6,130.6z"/>
					<path id="Path_210_1_" class="st2" d="M268.5,135.6c0.3-5.2-3.7-9.6-8.8-9.8c-6.6-0.2-11.6,12.9,4.3,18.3
						C266.2,144.8,267.8,142.7,268.5,135.6z"/>
					<path id="Path_211_1_" class="st5" d="M267.4,92.1c-2-7.7-7.1-14.3-14-18.3c-12.1-7.4-25.3-2.7-36.5,22
						c-11.2,24.7-27.4,19.3-34.5,13.2c0,0,2.4,11.8,18.9,16.7s26-3.5,33.8-17.4c4-7.8,13.3-11.2,21.4-7.8L267.4,92.1z"/>
					<g id="Group_418_1_" transform="translate(31.861 22.847)">
						<path id="Path_212_1_" class="st5" d="M271.1,127c-0.9,2.5-1.6,5.1-2.1,7.7c-0.5,0-0.9,0-1.4-0.1c-6.4-0.3-9.3-2.5-10.5-4.9
							c-0.6-1.2-0.9-2.5-0.8-3.8c0-0.7,0.1-1.5,0.3-2.2c3.9,1.9,8.1,3,12.4,3.2C270.3,126.9,271.1,127,271.1,127z"/>
						<path id="Path_213_1_" class="st10" d="M269,126.8l-0.7,2.3c-6-0.3-10.2-1.3-12-3.2c0-0.7,0.1-1.5,0.3-2.2
							C260.4,125.6,264.7,126.7,269,126.8z"/>
						<path id="Path_214_1_" class="st11" d="M267.6,134.6c-6.4-0.3-9.3-2.5-10.5-4.9c2.4,0.2,4.8,0.7,7,1.7
							C265.6,132.1,266.8,133.2,267.6,134.6z"/>
					</g>
					<path id="Path_215_1_" class="st7" d="M258.7,98.9c0,0-6.6-6.5-15.1,1.5s-9.1,25.6-22.8,30.2"/>
					<g id="Group_420_1_" transform="translate(9.344 17.655)">
						<path id="Path_216_1_" class="st3" d="M232.9,134.7c0.6-0.1,1.2-0.4,1.6-0.9l7.3-10.2c0.7-0.9,0.5-2.2-0.4-2.9l-9.9-8.4
							c-0.5-0.4-1.1-0.6-1.7-0.5l-23.8,2.9c-1.1,0.1-2,1.1-1.9,2.3l1,18.2c0.1,1.2,1.1,2.1,2.3,2.1c0,0,0.1,0,0.1,0L232.9,134.7z
							 M236.8,122.5c0-0.8,0.6-1.5,1.5-1.5c0,0,0,0,0,0c0.8,0,1.5,0.6,1.5,1.5c0,0,0,0,0,0c0,0.8-0.6,1.5-1.5,1.5c0,0,0,0,0,0
							C237.5,124,236.8,123.4,236.8,122.5L236.8,122.5z"/>
						<g id="Group_419_1_" transform="translate(1.911 1.464)">
							<path id="Path_217_1_" class="st10" d="M219.8,115c1.9-0.3,3.8,1,4.1,3c0,0.1,0,0.2,0,0.3c0,1.9-1.4,3.2-3.8,3.3
								c-2.5,0-4.1-1.3-4.1-3.2C215.9,116.4,217.4,115.1,219.8,115z M219.8,116.7c-1.7,0-2.3,0.7-2.3,1.6c0,0.9,0.7,1.6,2.5,1.6
								c1.6,0,2.3-0.8,2.3-1.6C222.3,117.5,221.6,116.7,219.8,116.7L219.8,116.7z M208.5,119.9l0-2.2l15.4,8.8l0,2.2L208.5,119.9z
								 M212.6,125.2c1.9-0.3,3.8,1,4.1,3c0,0.1,0,0.2,0,0.3c0,1.9-1.4,3.2-3.8,3.3c-2.5,0-4.1-1.3-4.1-3.2
								C208.7,126.6,210.2,125.3,212.6,125.2z M212.6,126.9c-1.7,0-2.3,0.7-2.3,1.6c0,0.9,0.7,1.6,2.5,1.6c1.6,0,2.3-0.8,2.3-1.6
								C215.1,127.7,214.4,126.9,212.6,126.9L212.6,126.9z"/>
						</g>
					</g>
					<path id="Path_218_1_" class="st12" d="M249.1,140c0,0,15.9-7.8,16-20.8"/>
					<path id="Path_219_1_" class="st3" d="M262.7,118.2l17-32.3c14,0.6,28,2.1,41.8,4.4c0,0,6.6,5.2,2.9,8.6
						c-3.7,3.4-11.5,0.9-13.8-1c-1.7-1.9-2.9-4.3-3.5-6.8l-4.1-0.5c0,0,3.8,8.5-2.2,8.3c-6-0.2-17-4-19.1-9.6l-18.5,32.7
						L262.7,118.2z"/>
				</g>
				<path id="Path_220_1_" class="st2" d="M277.9,183.3c29.1-4.5,31.8,85.6,43.2,106.5s82.7,74.9,82.7,74.9s23.3-2.2,28.2,0
					c4.9,2.2,5.5,17.7,1.4,17.7s-30,4.6-35.1,2.3s-7.6-11.4-7.6-11.4s-74.9-37.5-90.4-69.3c-12.9-26.5-25-72.3-28.4-88.5
					S270.5,184.4,277.9,183.3z"/>
				<path id="Path_221_1_" class="st3" d="M318.9,231.5l14.6,27.8c0.9,1.8,3.2,2.5,5,1.5c0.5-0.3,0.9-0.6,1.3-1.1L358,235
					c1.2-1.6,0.9-3.9-0.8-5.1c-0.5-0.4-1.2-0.6-1.9-0.7l-32.9-3c-2-0.2-3.8,1.3-4,3.3C318.4,230.2,318.5,230.9,318.9,231.5z"/>
				<path id="Path_222_1_" class="st10" d="M316.7,242.4v0.8c0,2,1.6,3.6,3.5,3.7l34,1.6c1.9,0.1,3.5-1.3,3.8-3.1l0,0
					c0.3-2-1.1-3.9-3.1-4.3c-0.1,0-0.2,0-0.3,0l-34-2.5c-2-0.1-3.8,1.4-4,3.4C316.7,242.2,316.7,242.3,316.7,242.4z"/>
			</g>
		</g>
		<g id="Cart_1_" transform="translate(102.834 57.998)">
			<g id="Group_444_1_">
				<g id="Group_426_1_" transform="translate(73.036)">
					<g id="Group_423_1_" transform="translate(0 8.12)">
						<path id="Path_223_1_" class="st3" d="M478.2,257.8c-0.1,0-0.2,0-0.3,0c-1-0.2-24.2-4.4-30.6-15c-1.8-2.9-2.2-6.4-1.1-9.6
							c1.1-3.4,4.5-7.6,14.3-8.8c16.7-2,44.6,6.2,49.8,14.6c0.6,0.9,0.3,2.1-0.6,2.6c0,0,0,0,0,0c-0.9,0.6-2.1,0.3-2.6-0.6
							c0,0,0,0,0,0c-4.1-6.6-29.9-14.7-46-12.8c-4.3,0.5-9.7,2-11.1,6.2c-0.8,2.1-0.5,4.5,0.7,6.4c5.5,9.2,27.7,13.2,27.9,13.2
							c1,0.2,1.7,1.2,1.6,2.2C479.9,257.1,479.1,257.8,478.2,257.8z"/>
					</g>
					<path id="Path_224_1_" class="st3" d="M569.7,237.9l24.7,157.1l-78.3,24.3l-38.9-9.3l-12.7-144.5l35-23.8L569.7,237.9z"/>
					<path id="Path_225_1_" class="st13" d="M516.1,419.4l-16.6-177.6l-35,23.8L477.2,410L516.1,419.4z"/>
					<g id="Group_424_1_" transform="translate(16.66)">
						<path id="Path_226_1_" class="st3" d="M499.4,252.9c-0.5,0-1-0.2-1.4-0.6c-0.6-0.6-14.4-15.5-13.8-29.7
							c0.2-5.1,2.5-10,6.5-13.3c5-4.3,12.1-5.4,18.1-2.7c15.1,5.5,30.8,26.3,32.7,38.9c0.2,1-0.6,2-1.6,2.2c0,0,0,0,0,0
							c-1,0.1-2-0.6-2.2-1.6c-1.7-11.5-16.6-30.9-30.2-35.8c-4.7-2.2-10.3-1.4-14.3,2c-3.2,2.6-5,6.5-5.2,10.6
							c-0.6,12.6,12.6,26.8,12.7,26.9c0.7,0.8,0.7,2-0.1,2.7C500.3,252.8,499.9,252.9,499.4,252.9z"/>
					</g>
					<g id="Group_425_1_" transform="translate(16.66)" class="st14">
						<path id="Path_227_1_" class="st10" d="M499.4,252.9c-0.5,0-1-0.2-1.4-0.6c-0.6-0.6-14.4-15.5-13.8-29.7
							c0.2-5.1,2.5-10,6.5-13.3c5-4.3,12.1-5.4,18.1-2.7c15.1,5.5,30.8,26.3,32.7,38.9c0.2,1-0.6,2-1.6,2.2c0,0,0,0,0,0
							c-1,0.1-2-0.6-2.2-1.6c-1.7-11.5-16.6-30.9-30.2-35.8c-4.7-2.2-10.3-1.4-14.3,2c-3.2,2.6-5,6.5-5.2,10.6
							c-0.6,12.6,12.6,26.8,12.7,26.9c0.7,0.8,0.7,2-0.1,2.7C500.3,252.8,499.9,252.9,499.4,252.9z"/>
					</g>
				</g>
				<g id="Group_429_1_" transform="translate(0 31.564)">
					<g id="Group_427_1_">
						<path id="Path_228_1_" class="st3" d="M497,337.1c-1.3,0-2.5-0.4-3.5-1.1l-66-43.6c-1.2-0.8-2.7-1.3-4.2-1.3H301l43.4,34.5
							c2.8,2.2,3.2,6.2,1,9c-2.2,2.8-6.2,3.2-9,1l-57.8-46c-2.1-1.7-3-4.6-2.1-7.1c0.9-2.6,3.3-4.3,6.1-4.3h140.7
							c4,0,7.9,1.2,11.2,3.4l66,43.6c3,2,3.8,5.9,1.8,8.9C501.2,336.1,499.2,337.2,497,337.1z"/>
					</g>
					<g id="Group_428_1_" class="st15">
						<path id="Path_229_1_" d="M497,337.1c-1.3,0-2.5-0.4-3.5-1.1l-66-43.6c-1.2-0.8-2.7-1.3-4.2-1.3H301l43.4,34.5
							c2.8,2.2,3.2,6.2,1,9c-2.2,2.8-6.2,3.2-9,1l-57.8-46c-2.1-1.7-3-4.6-2.1-7.1c0.9-2.6,3.3-4.3,6.1-4.3h140.7
							c4,0,7.9,1.2,11.2,3.4l66,43.6c3,2,3.8,5.9,1.8,8.9C501.2,336.1,499.2,337.2,497,337.1z"/>
					</g>
				</g>
				<g id="Group_431_1_" transform="translate(25.498 19.082)">
					<path id="Path_230_1_" class="st3" d="M335.3,447L419,261.7l86.3-12.3l20.3,31.4l-34.5,207.3l-97.5,8.2L335.3,447z"/>
					<path id="Path_231_1_" class="st6" d="M335.3,447L419,261.7l86.3-12.3l20.3,31.4l-34.5,207.3l-97.5,8.2L335.3,447z"/>
					<path id="Path_232_1_" class="st4" d="M505.3,249.4l-52.7,175.4L335.3,447l58.3,49.3l97.5-8.2l34.5-207.3L505.3,249.4z"/>
					<path id="Path_233_1_" class="st4" d="M335.3,447l117.3-22.1l38.5,63.3l-97.5,8.2L335.3,447z"/>
					<g id="Group_430_1_" transform="translate(26.081 2.176)">
						<path id="Path_234_1_" class="st5" d="M413.6,282.7c-0.6,0-1.2,0-1.8,0c-9.3-0.3-14.5-2.4-15.7-6.5
							c-2.2-7.2,10.2-16.4,12.7-18.2c0.9-0.6,2.1-0.4,2.7,0.5c0.6,0.9,0.4,2.1-0.5,2.7c-5.3,3.7-12.3,10.5-11.2,13.9
							c0.3,1,2.1,3.4,12.1,3.8c28.9,1,42.6-23.1,42.8-23.3c0.5-0.9,1.7-1.3,2.6-0.8c0.9,0.5,1.3,1.7,0.8,2.6
							C457.9,257.6,443.7,282.7,413.6,282.7z"/>
					</g>
				</g>
				<g id="Group_434_1_" transform="translate(72.443 34.108)">
					<path id="Path_235_1_" class="st5" d="M449.5,486.5l-5.3-185.7l94.3-16.6l43.7,16.6l-6.6,169.3l-44.1,22.3L449.5,486.5z"/>
					<path id="Path_236_1_" class="st16" d="M538.5,284.3l-7,208.2l44.1-22.3l6.6-169.3L538.5,284.3z"/>
					<g id="Group_432_1_" transform="translate(6.88 3.102)">
						<path id="Path_237_1_" class="st3" d="M483.2,346.7c-4.9,0.1-9.7-1.9-13.1-5.4c-11.4-11.7-9.9-38.1-9.9-39.3
							c0.1-1.1,1-1.9,2-1.8c1.1,0.1,1.9,1,1.8,2c0,0,0,0,0,0c0,0.3-1.5,25.9,8.8,36.3c2.9,3,6.9,4.6,11.1,4.3
							c3.8-0.1,7.4-1.9,9.9-4.8c10.9-12.5,7.9-44.1,7.9-44.4c-0.1-1.1,0.7-2,1.7-2.1c1-0.1,2,0.6,2.1,1.7c0,0,0,0,0,0
							c0.1,1.4,3.1,33.6-8.8,47.3c-3.1,3.8-7.7,6-12.6,6.1C483.8,346.7,483.5,346.7,483.2,346.7z"/>
					</g>
					<g id="Group_433_1_" transform="translate(6.88 3.102)" class="st15">
						<path id="Path_238_1_" d="M483.2,346.7c-4.9,0.1-9.7-1.9-13.1-5.4c-11.4-11.7-9.9-38.1-9.9-39.3c0.1-1.1,1-1.9,2-1.8
							c1.1,0.1,1.9,1,1.8,2c0,0,0,0,0,0c0,0.3-1.5,25.9,8.8,36.3c2.9,3,6.9,4.6,11.1,4.3c3.8-0.1,7.4-1.9,9.9-4.8
							c10.9-12.5,7.9-44.1,7.9-44.4c-0.1-1.1,0.7-2,1.7-2.1c1-0.1,2,0.6,2.1,1.7c0,0,0,0,0,0c0.1,1.4,3.1,33.6-8.8,47.3
							c-3.1,3.8-7.7,6-12.6,6.1C483.8,346.7,483.5,346.7,483.2,346.7z"/>
					</g>
				</g>
				<g id="Group_435_1_" transform="translate(50.898 135.802)">
					<path id="Path_239_1_" class="st5" d="M646.1,527.3c-4.5-7.7-15.8-9.5-25.4-3.9c-9.6,5.5-13.8,16.3-9.3,24
						c4.5,7.7,15.8,9.5,25.4,3.9C646.3,545.7,650.5,535,646.1,527.3z"/>
					<path id="Path_240_1_" class="st5" d="M405.3,523.3c-9.6,5.5-13.8,16.3-9.3,24c4.5,7.7,15.8,9.5,25.4,3.9
						c9.6-5.5,13.8-16.3,9.3-24C426.3,519.6,414.9,517.8,405.3,523.3z"/>
				</g>
				<g id="Group_436_1_" transform="translate(53.404 95.051)">
					<path id="Path_241_1_" class="st3" d="M615.4,572H406.5c-3.5,0-6.4-2.9-6.4-6.4c0-3.5,2.9-6.4,6.4-6.4h208.9
						c2.1,0,3.9-1.7,3.9-3.9v-16.6c0-1.8-1.3-3.4-3.1-3.8l-172.8-37.4c-15.5-3.4-26.6-17.1-26.6-33V432c0-3.5,2.9-6.4,6.4-6.4
						s6.4,2.9,6.4,6.4v32.5c0,9.9,6.9,18.4,16.5,20.5l172.7,37.4c7.7,1.7,13.1,8.5,13.2,16.3v16.6C632.1,564.5,624.6,572,615.4,572z
						"/>
				</g>
				<g id="Group_437_1_" transform="translate(53.404 95.051)" class="st15">
					<path id="Path_242_1_" d="M615.4,572H406.5c-3.5,0-6.4-2.9-6.4-6.4c0-3.5,2.9-6.4,6.4-6.4h208.9c2.1,0,3.9-1.7,3.9-3.9v-16.6
						c0-1.8-1.3-3.4-3.1-3.8l-172.8-37.4c-15.5-3.4-26.6-17.1-26.6-33V432c0-3.5,2.9-6.4,6.4-6.4s6.4,2.9,6.4,6.4v32.5
						c0,9.9,6.9,18.4,16.5,20.5l172.7,37.4c7.7,1.7,13.1,8.5,13.2,16.3v16.6C632.1,564.5,624.6,572,615.4,572z"/>
				</g>
				<g id="Group_438_1_" transform="translate(47.361 44.954)">
					<path id="Path_243_1_" class="st3" d="M621.2,401.3c0-0.1,0.1-0.3,0.1-0.4l7.5-41.3v-0.1l7.7-42.5c0.3-1.9-0.2-3.8-1.4-5.2
						c-1.2-1.5-3-2.3-4.9-2.3h-81.4c-3.5,0-6.4,2.9-6.4,6.4c0,3.5,2.9,6.4,6.4,6.4H572l-4.1,29.5H392.4c-3.5,0-6.4,2.9-6.4,6.4
						c0,3.5,2.9,6.4,6.4,6.4h173.7l-4,28.8h-159c-3.5,0-6.4,2.9-6.4,6.4c0,3.5,2.9,6.4,6.4,6.4h157.3l-4.2,29.8H413.3
						c-3.5,0-6.4,2.9-6.4,6.4c0,3.5,2.9,6.4,6.4,6.4h141.1l-3.8,26.9H534c-3.5,0-6.4,2.9-6.4,6.4s2.9,6.4,6.4,6.4h66
						c3.1,0,5.8-2.2,6.3-5.3l7.1-39.5v-0.1L621.2,401.3z M609.6,393.4h-8.9l5.1-28.8h9.1L609.6,393.4z M607.3,406.2l-5.4,29.8h-8.7
						l5.2-29.8L607.3,406.2z M617.1,351.8H608l5.2-29.5h9.3L617.1,351.8z M585,322.2h15.2l-5.2,29.5h-14.1L585,322.2z M579.1,364.6
						h13.7l-5.1,28.8h-12.6L579.1,364.6z M573.3,406.2h12.2l-5.2,29.8h-11.1L573.3,406.2z M567.3,448.8h10.6l-4.7,26.9h-9.7
						L567.3,448.8z M586.2,475.7l4.7-26.9h8.6l-4.9,26.9H586.2z"/>
				</g>
				<g id="Group_439_1_" transform="translate(47.361 44.954)" class="st15">
					<path id="Path_244_1_" d="M621.2,401.3c0-0.1,0.1-0.3,0.1-0.4l7.5-41.3v-0.1l7.7-42.5c0.3-1.9-0.2-3.8-1.4-5.2
						c-1.2-1.5-3-2.3-4.9-2.3h-81.4c-3.5,0-6.4,2.9-6.4,6.4c0,3.5,2.9,6.4,6.4,6.4H572l-4.1,29.5H392.4c-3.5,0-6.4,2.9-6.4,6.4
						c0,3.5,2.9,6.4,6.4,6.4h173.7l-4,28.8h-159c-3.5,0-6.4,2.9-6.4,6.4c0,3.5,2.9,6.4,6.4,6.4h157.3l-4.2,29.8H413.3
						c-3.5,0-6.4,2.9-6.4,6.4c0,3.5,2.9,6.4,6.4,6.4h141.1l-3.8,26.9H534c-3.5,0-6.4,2.9-6.4,6.4s2.9,6.4,6.4,6.4h66
						c3.1,0,5.8-2.2,6.3-5.3l7.1-39.5v-0.1L621.2,401.3z M609.6,393.4h-8.9l5.1-28.8h9.1L609.6,393.4z M607.3,406.2l-5.4,29.8h-8.7
						l5.2-29.8L607.3,406.2z M617.1,351.8H608l5.2-29.5h9.3L617.1,351.8z M585,322.2h15.2l-5.2,29.5h-14.1L585,322.2z M579.1,364.6
						h13.7l-5.1,28.8h-12.6L579.1,364.6z M573.3,406.2h12.2l-5.2,29.8h-11.1L573.3,406.2z M567.3,448.8h10.6l-4.7,26.9h-9.7
						L567.3,448.8z M586.2,475.7l4.7-26.9h8.6l-4.9,26.9H586.2z"/>
				</g>
				<g id="Group_440_1_" transform="translate(15.885 44.954)">
					<path id="Path_245_1_" class="st3" d="M584.9,311.5c-1.2-1.3-2.9-2.1-4.7-2.1H319.4c-2,0-3.8,0.9-5,2.4
						c-1.2,1.5-1.7,3.5-1.2,5.4l9.6,42.2l0,0L351,483.5c0.7,2.9,3.3,5,6.2,5h208.3c3.3,0,6.1-2.5,6.4-5.8l14.7-166.3
						C586.7,314.6,586.1,312.8,584.9,311.5z M563.2,436h-29.7l1.3-29.7h31.1L563.2,436z M398.2,475.7l-3.5-26.9h32l1.9,26.9H398.2z
						 M435.5,393.4l-2.1-28.8h42.2v28.8H435.5z M475.6,406.2V436h-37l-2.2-29.7H475.6z M488.4,364.6h35.3l-1.3,28.8h-34V364.6z
						 M488.4,351.8v-29.5h37.2l-1.3,29.5L488.4,351.8z M475.6,351.8h-43.1l-2.1-29.5h45.3V351.8z M419.7,351.8h-37.5l-3.8-29.5h39.2
						L419.7,351.8z M420.6,364.6l2.1,28.8h-35.1l-3.7-28.8H420.6z M374.6,393.4h-30.9l-6.6-28.8h33.8L374.6,393.4z M346.6,406.2
						h29.7l3.8,29.7h-26.8L346.6,406.2z M389.2,406.2h34.4l2.2,29.7H393L389.2,406.2z M439.5,448.8h36.1v26.9h-34.2L439.5,448.8z
						 M488.4,448.8H520l-1.2,26.9h-30.4L488.4,448.8z M488.4,436v-29.7h33.5l-1.3,29.7H488.4z M535.3,393.4l1.3-28.8h32.9l-2.5,28.8
						H535.3z M570.6,351.8h-33.5l1.3-29.5h34.8L570.6,351.8z M365.4,322.2l3.8,29.5h-35l-6.7-29.5H365.4z M356.3,448.8h25.5
						l3.5,26.9h-22.9L356.3,448.8z M531.7,475.7l1.2-26.9H562l-2.4,26.9H531.7z"/>
				</g>
				<g id="Group_441_1_" transform="translate(22.517 95.051)">
					<path id="Path_246_1_" class="st3" d="M543.7,572H334.8c-3.5,0-6.4-2.9-6.4-6.4c0-3.5,2.9-6.4,6.4-6.4h208.9
						c2.1,0,3.9-1.7,3.9-3.9v-16.6c0-1.8-1.3-3.4-3.1-3.8l-172.8-37.4c-15.5-3.4-26.6-17.1-26.6-33V432c0-3.5,2.9-6.4,6.4-6.4
						c3.5,0,6.4,2.9,6.4,6.4v32.5c0,9.9,6.9,18.4,16.5,20.5l172.7,37.4c7.7,1.7,13.1,8.5,13.2,16.3v16.6
						C560.4,564.5,553,572,543.7,572z"/>
				</g>
				<g id="Group_442_1_" transform="translate(79.892 133.753)">
					
						<ellipse id="Ellipse_136_1_" transform="matrix(0.866 -0.5 0.5 0.866 -204.4478 315.7271)" class="st5" cx="486.9" cy="539.4" rx="20.1" ry="16.1"/>
					<path id="Path_247_1_" class="st3" d="M491.7,533.9c1.9,4.5-0.1,9.7-4.6,11.8c-4,2.9-9.5,2-12.5-1.9c-1.9-4.5,0.1-9.7,4.6-11.8
						C483.2,529.1,488.8,529.9,491.7,533.9z"/>
				</g>
				<g id="Group_443_1_" transform="translate(15.031 133.753)">
					
						<ellipse id="Ellipse_137_1_" transform="matrix(0.866 -0.5 0.5 0.866 -224.6014 240.5155)" class="st5" cx="336.5" cy="539.4" rx="20.1" ry="16.1"/>
					<path id="Path_248_1_" class="st3" d="M341.3,533.9c1.9,4.5-0.1,9.7-4.6,11.8c-4,2.9-9.5,2-12.5-1.9c-1.9-4.5,0.1-9.7,4.6-11.8
						C332.8,529.1,338.4,529.9,341.3,533.9z"/>
				</g>
			</g>
		</g>
	</g>
</g>
</svg>
