<svg xmlns="http://www.w3.org/2000/svg" width="25.967" height="38.524" viewBox="0 0 25.967 38.524">
    <g id="business" transform="translate(-83.447)">
        <g id="Сгруппировать_294" data-name="Сгруппировать 294" transform="translate(83.447)">
            <path id="Контур_57" fill="#848484" d="M108.849 31.214a.564.564 0 0 0-.564.564v5.306a.312.312 0 0 1-.312.312h-3.033V26.282a.564.564 0 1 0-1.129 0V37.4H97.7l1.771-1.949a1.012 1.012 0 0 0 .244-.812v-.017l-1.687-9.967.455-.684a1.28 1.28 0 0 0 .808.35.988.988 0 0 0 .884-.547l1.779-3.566 4.054 1.57a3.91 3.91 0 0 1 2.276 3.554v3.817a.564.564 0 1 0 1.129 0v-3.822a5.036 5.036 0 0 0-2.978-4.6h-.011l-6.747-2.613v-1.585a5.288 5.288 0 0 0 2-3.478 2.443 2.443 0 0 0 1.435-.585 2.4 2.4 0 0 0 .25-3.381V6.994a6.994 6.994 0 1 0-13.988 0v2.145a2.266 2.266 0 0 0-.582 1.51 2.391 2.391 0 0 0 .832 1.816 2.441 2.441 0 0 0 1.434.585 5.232 5.232 0 0 0 2.116 3.562v1.5l-6.74 2.613h-.011a5.036 5.036 0 0 0-2.978 4.6v11.759a1.442 1.442 0 0 0 1.44 1.44h5.377a.564.564 0 0 0 0-1.129H89.05V26.282a.564.564 0 1 0-1.129 0V37.4h-3.034a.312.312 0 0 1-.312-.312V25.327a3.91 3.91 0 0 1 2.276-3.554L90.9 20.2l1.78 3.567a.988.988 0 0 0 .885.547 1.279 1.279 0 0 0 .808-.35l.455.684-1.687 9.967v.017a1.012 1.012 0 0 0 .244.812l1.769 1.956H92.9a.564.564 0 0 0 0 1.129h15.076a1.442 1.442 0 0 0 1.44-1.44v-5.311a.565.565 0 0 0-.567-.564zm-7.949-11.42l-1.659 3.325-2-1.417 2.049-2.529zm-3.336 3.519l-.43.648h-1.409l-.43-.648 1.134-.805zm-3.264-5.02v-1.056a5.726 5.726 0 0 0 2.134.4 5.3 5.3 0 0 0 2.111-.44v1.1l-2.12 2.617zm8.513-7.643a1.264 1.264 0 0 1-.439.96 1.314 1.314 0 0 1-.652.3V9.39a1.277 1.277 0 0 1 1.095 1.26zm-11.8 1.26a1.275 1.275 0 0 1-1.091-1.26 1.34 1.34 0 0 1 1.091-1.231zm.03-3.64a2.79 2.79 0 0 0-.539.122v-1.4a5.865 5.865 0 1 1 11.73 0v1.36a2.509 2.509 0 0 0-.509-.1c0-.545 0-.439-1.777-2.355a1 1 0 0 0-1.282-.156 10.88 10.88 0 0 1-6.576 1.772 1 1 0 0 0-1.046.756zm1.1 4.085V8.647a12.059 12.059 0 0 0 7.053-1.9c.817.877 1.259 1.337 1.4 1.512v4.1a4.228 4.228 0 0 1-8.455 0zm1.476 10.765l-1.659-3.325 1.6-.621 2.05 2.53zm.647 11.621l1.634-9.652h1.059l1.633 9.651-2.163 2.379z" data-name="Контур 57" transform="translate(-83.447)"/>
        </g>
    </g>
</svg>
