<svg xmlns="http://www.w3.org/2000/svg" width="30.917" height="37.334" viewBox="0 0 30.917 37.334">
    <defs>
        <style>
            .cls-1{fill:#848484}
        </style>
    </defs>
    <g id="interface" transform="translate(-44.001)">
        <g id="Сгруппировать_324" data-name="Сгруппировать 324" transform="translate(58.731 11.084)">
            <g id="Сгруппировать_323" data-name="Сгруппировать 323">
                <path id="Контур_72" d="M257.231 152h-10.5a.729.729 0 1 0 0 1.458h10.5a.729.729 0 1 0 0-1.458z" class="cls-1" data-name="Контур 72" transform="translate(-246.001 -152)"/>
            </g>
        </g>
        <g id="Сгруппировать_326" data-name="Сгруппировать 326" transform="translate(66.164 14.584)">
            <g id="Сгруппировать_325" data-name="Сгруппировать 325">
                <path id="Контур_73" d="M349.186 200.215a.729.729 0 1 0 .214.516.735.735 0 0 0-.214-.516z" class="cls-1" data-name="Контур 73" transform="translate(-347.941 -200.001)"/>
            </g>
        </g>
        <g id="Сгруппировать_328" data-name="Сгруппировать 328" transform="translate(58.73 3.136)">
            <g id="Сгруппировать_327" data-name="Сгруппировать 327">
                <path id="Контур_74" d="M247.236 43.215a.729.729 0 1 0 .214.516.735.735 0 0 0-.214-.516z" class="cls-1" data-name="Контур 74" transform="translate(-245.991 -43.001)"/>
            </g>
        </g>
        <g id="Сгруппировать_330" data-name="Сгруппировать 330" transform="translate(58.731 14.584)">
            <g id="Сгруппировать_329" data-name="Сгруппировать 329">
                <path id="Контур_75" d="M251.1 200h-4.37a.729.729 0 1 0 0 1.458h4.37a.729.729 0 1 0 0-1.458z" class="cls-1" data-name="Контур 75" transform="translate(-246.001 -200)"/>
            </g>
        </g>
        <g id="Сгруппировать_332" data-name="Сгруппировать 332" transform="translate(58.731 18.959)">
            <g id="Сгруппировать_331" data-name="Сгруппировать 331">
                <path id="Контур_76" d="M257.231 260h-10.5a.729.729 0 1 0 0 1.458h10.5a.729.729 0 0 0 0-1.458z" class="cls-1" data-name="Контур 76" transform="translate(-246.001 -260)"/>
            </g>
        </g>
        <g id="Сгруппировать_334" data-name="Сгруппировать 334" transform="translate(66.164 22.459)">
            <g id="Сгруппировать_333" data-name="Сгруппировать 333">
                <path id="Контур_77" d="M349.186 308.215a.729.729 0 1 0 .214.516.735.735 0 0 0-.214-.516z" class="cls-1" data-name="Контур 77" transform="translate(-347.941 -308.001)"/>
            </g>
        </g>
        <g id="Сгруппировать_336" data-name="Сгруппировать 336" transform="translate(58.731 22.459)">
            <g id="Сгруппировать_335" data-name="Сгруппировать 335">
                <path id="Контур_78" d="M251.1 308h-4.37a.729.729 0 0 0 0 1.458h4.37a.729.729 0 1 0 0-1.458z" class="cls-1" data-name="Контур 78" transform="translate(-246.001 -308)"/>
            </g>
        </g>
        <g id="Сгруппировать_338" data-name="Сгруппировать 338" transform="translate(58.731 26.834)">
            <g id="Сгруппировать_337" data-name="Сгруппировать 337">
                <path id="Контур_79" d="M257.231 368h-10.5a.729.729 0 0 0 0 1.458h10.5a.729.729 0 0 0 0-1.458z" class="cls-1" data-name="Контур 79" transform="translate(-246.001 -368)"/>
            </g>
        </g>
        <g id="Сгруппировать_340" data-name="Сгруппировать 340" transform="translate(66.164 30.334)">
            <g id="Сгруппировать_339" data-name="Сгруппировать 339">
                <path id="Контур_80" d="M349.186 416.215a.729.729 0 1 0 .214.516.735.735 0 0 0-.214-.516z" class="cls-1" data-name="Контур 80" transform="translate(-347.941 -416.001)"/>
            </g>
        </g>
        <g id="Сгруппировать_342" data-name="Сгруппировать 342" transform="translate(58.731 30.334)">
            <g id="Сгруппировать_341" data-name="Сгруппировать 341">
                <path id="Контур_81" d="M251.1 416h-4.37a.729.729 0 0 0 0 1.458h4.37a.729.729 0 1 0 0-1.458z" class="cls-1" data-name="Контур 81" transform="translate(-246.001 -416)"/>
            </g>
        </g>
        <g id="Сгруппировать_344" data-name="Сгруппировать 344" transform="translate(44.001)">
            <g id="Сгруппировать_343" data-name="Сгруппировать 343">
                <path id="Контур_82" d="M71.363 2.844h-5.569A4.468 4.468 0 0 0 62.7 1.6h-.639a2.916 2.916 0 0 0-5.209 0h-.64a4.467 4.467 0 0 0-3.091 1.24h-5.565A3.559 3.559 0 0 0 44 6.4v27.38a3.559 3.559 0 0 0 3.555 3.555h23.808a3.559 3.559 0 0 0 3.555-3.555V6.4a3.559 3.559 0 0 0-3.555-3.556zm-15.148.219h1.137a.729.729 0 0 0 .7-.535 1.458 1.458 0 0 1 2.811 0 .729.729 0 0 0 .7.535H62.7a3.03 3.03 0 0 1 3.015 2.771H53.2a3.03 3.03 0 0 1 3.015-2.771zM73.46 33.779a2.1 2.1 0 0 1-2.1 2.1H47.556a2.1 2.1 0 0 1-2.1-2.1V6.4a2.1 2.1 0 0 1 2.1-2.1H52.1a4.458 4.458 0 0 0-.372 1.787v.474a.729.729 0 0 0 .729.729h14a.729.729 0 0 0 .729-.729v-.472a4.458 4.458 0 0 0-.371-1.789h4.548a2.1 2.1 0 0 1 2.1 2.1z" class="cls-1" data-name="Контур 82" transform="translate(-44.001)"/>
            </g>
        </g>
        <g id="Сгруппировать_346" data-name="Сгруппировать 346" transform="translate(48.468 10.695)">
            <g id="Сгруппировать_345" data-name="Сгруппировать 345">
                <path id="Контур_83" d="M111.616 146.881a.729.729 0 0 0-1.031 0L107.467 150l-.961-.961a.729.729 0 0 0-1.031 1.031l1.476 1.476a.729.729 0 0 0 1.031 0l3.634-3.634a.729.729 0 0 0 0-1.031z" class="cls-1" data-name="Контур 83" transform="translate(-105.261 -146.667)"/>
            </g>
        </g>
        <g id="Сгруппировать_348" data-name="Сгруппировать 348" transform="translate(48.814 26.834)">
            <g id="Сгруппировать_347" data-name="Сгруппировать 347">
                <path id="Контур_84" d="M114.23 368h-3.5a.729.729 0 0 0-.729.729v3.5a.729.729 0 0 0 .729.729h3.5a.729.729 0 0 0 .729-.729v-3.5a.729.729 0 0 0-.729-.729zm-.729 3.5h-2.042v-2.042h2.041z" class="cls-1" data-name="Контур 84" transform="translate(-110.001 -368)"/>
            </g>
        </g>
        <g id="Сгруппировать_350" data-name="Сгруппировать 350" transform="translate(48.814 18.959)">
            <g id="Сгруппировать_349" data-name="Сгруппировать 349">
                <path id="Контур_85" d="M114.23 260h-3.5a.729.729 0 0 0-.729.729v3.5a.729.729 0 0 0 .729.729h3.5a.729.729 0 0 0 .729-.729v-3.5a.729.729 0 0 0-.729-.729zm-.729 3.5h-2.042v-2.042h2.041z" class="cls-1" data-name="Контур 85" transform="translate(-110.001 -260)"/>
            </g>
        </g>
    </g>
</svg>
