<?xml version="1.0" encoding="utf-8"?>
<!-- Generator: Adobe Illustrator 23.1.0, SVG Export Plug-In . SVG Version: 6.00 Build 0)  -->
<svg version="1.1" id="Слой_1" xmlns="http://www.w3.org/2000/svg" xmlns:xlink="http://www.w3.org/1999/xlink" x="0px" y="0px"
	 viewBox="0 0 850.4 850.4" style="enable-background:new 0 0 850.4 850.4;" xml:space="preserve">
<style type="text/css">
	.st0{clip-path:url(#SVGID_2_);}
	.st1{fill:#F5F5F5;}
	.st2{fill:#E0E0E0;}
	.st3{fill:#EBEBEB;}
	.st4{clip-path:url(#SVGID_4_);}
	.st5{fill:#273238;}
	.st6{fill:#B78876;}
	.st7{fill:#AA6550;}
	.st8{fill:#5466EE;}
	.st9{clip-path:url(#SVGID_6_);}
	.st10{fill:none;}
	.st11{fill:#9DA7F5;}
	.st12{fill:#FAFAFA;}
	.st13{opacity:0.4;}
	.st14{clip-path:url(#SVGID_8_);}
	.st15{clip-path:url(#SVGID_10_);}
	.st16{opacity:0.2;}
	.st17{clip-path:url(#SVGID_12_);}
	.st18{fill:#8896FF;}
	.st19{clip-path:url(#SVGID_14_);}
	.st20{fill:#2134BE;}
	.st21{fill:#435A64;}
	.st22{fill:#DC4C5B;}
	.st23{opacity:0.88;}
	.st24{clip-path:url(#SVGID_16_);}
	.st25{fill:#9BA7FF;}
	.st26{fill:#FFFFFF;}
	.st27{clip-path:url(#SVGID_18_);}
	.st28{fill:#7C8AF8;}
	.st29{fill:#2234BB;}
</style>
<g id="Group_475" transform="translate(-881.833 -165)">
	<g id="Group_449" transform="translate(881.833 165)">
		<g>
			<defs>
				<rect id="SVGID_1_" x="57" y="68" width="757.7" height="720.8"/>
			</defs>
			<clipPath id="SVGID_2_">
				<use xlink:href="#SVGID_1_"  style="overflow:visible;"/>
			</clipPath>
			<g id="Group_448" transform="translate(0 0)" class="st0">
				<path id="Path_253" class="st1" d="M659.9,735.4c-39.6-14.9-57.8-55-65.9-93c-1.3-6.3-3.7-12.8-2-19c1.8-6.2,8.2-11.6,14.8-10.3
					c5.5,1.1,9,6,12.8,9.9c5.3,5.2,11.8,8.9,19,10.6c4.7,1.1,10.3,1.2,13.9-1.9c5-4.3,3.8-11.9,2.2-18.2c-3-11.6-6-23.3-9-34.9
					c-2-6.1-2.8-12.6-2.6-19c0.3-6.6,3.9-12.6,9.6-16c5.8-3.1,14.4-1.4,17.3,4.4c0.9,2.5,1.6,5.1,2.1,7.7c0.6,2.7,2.8,4.8,5.6,5.3
					c2.8-0.3,5.3-2,6.5-4.5c5.2-7.8,7.8-17,10.1-26.1s4.4-18.3,8.8-26.5c4.2-8.6,11.8-15.2,20.9-18.3c9.3-2.6,20.7,0.6,25.3,8.9
					c4.6,8.2,1.4,18.4-2.7,26.9c-6.1,12.6-14.1,24.3-23.7,34.6c-1.9,1.7-3.3,3.9-3.8,6.4c-0.4,4.5,4.8,7.7,9.5,8.1
					c5.3,0.4,10.5-1.2,15.8-1.8c5.3-0.6,11.4,0.3,14.5,4.5c4.3,5.8,0.3,13.7-4.1,19.4c-9,11.4-19.9,21.1-32.1,28.8
					c-4.6,2.4-8.8,5.6-12.2,9.5c-3.1,4.1-4,10.3-0.6,14.1c3.5,3.9,9.9,3.9,14.7,1.9c4.8-2,8.7-5.7,13.1-8.5
					c8.2-5.3,20.1-7.3,27.7-1.2c4.8,4.3,7.3,10.6,6.6,17c-0.8,6.3-2.9,12.3-6.1,17.7c-10.5,19.8-26,36.4-45,48.2
					C701.6,731.7,682.6,738,659.9,735.4"/>
				<path id="Path_254" class="st2" d="M664.3,709.5c1.5-22,4.2-43.9,8.3-65.6c1.1-5.8,2.1-11.5,3.1-17.1c1-5.6,2.1-11.2,3.4-16.5
					c2.6-10.3,5.9-20.5,9.7-30.5c3.6-9.5,7.3-18.5,10.9-26.8c3.6-8.3,7.1-16,10.6-22.9c5.5-10.9,11.9-21.4,19.1-31.3
					c2.6-3.5,4.6-6.2,6.1-8l1.6-2c0.2-0.2,0.4-0.5,0.6-0.7c-0.1,0.3-0.3,0.5-0.5,0.7l-1.5,2.1c-1.4,1.8-3.4,4.5-5.9,8.1
					c-7,10-13.3,20.5-18.7,31.4c-3.5,6.9-6.9,14.6-10.4,22.9c-3.5,8.3-7.2,17.3-10.8,26.8c-3.8,9.9-7,20.1-9.6,30.4
					c-1.3,5.3-2.4,10.9-3.4,16.5c-1,5.6-2.1,11.3-3.1,17.1c-4.1,21.6-6.9,43.5-8.4,65.4"/>
				<path id="Path_255" class="st2" d="M679.5,610.2c-0.5-0.8-1-1.6-1.3-2.5c-0.8-1.6-1.8-4.1-3.1-7.1c-2.5-6-5.6-14.4-9-23.7
					c-3.4-9.3-6.7-17.6-9.2-23.6c-1.3-3-2.3-5.4-3.1-7c-0.5-0.8-0.8-1.7-1.1-2.6c0.6,0.8,1.1,1.6,1.5,2.4c0.9,1.6,2.1,3.9,3.5,6.9
					c2.8,5.9,6.2,14.2,9.6,23.5c3.3,9.2,6.4,17.5,8.7,23.8c1.1,2.9,2,5.3,2.7,7.2C679,608.4,679.3,609.3,679.5,610.2"/>
				<path id="Path_256" class="st2" d="M760.4,576.1c-1.1,0.5-2.2,0.9-3.3,1.1c-2.1,0.7-5.2,1.6-9,2.9c-7.6,2.5-17.9,6.4-29,11.1
					c-11.2,4.7-21.1,9.4-28.1,13c-3.5,1.8-6.4,3.3-8.3,4.3c-1,0.6-2,1.1-3.1,1.5c0.9-0.7,1.9-1.4,2.9-1.9c1.9-1.2,4.7-2.8,8.2-4.7
					c7-3.8,16.9-8.6,28.1-13.4s21.6-8.5,29.2-10.8c3.8-1.2,6.9-2,9.1-2.6C758.1,576.5,759.2,576.3,760.4,576.1"/>
				<path id="Path_257" class="st2" d="M665,707.8c0,0-0.3-0.3-0.8-0.8l-2.2-2.6c-1.9-2.2-4.5-5.6-7.7-9.7c-6.4-8.3-14.8-20-23.9-33
					c-9.1-13-17.4-24.8-23.6-33.2l-7.4-9.9l-2-2.7c-0.3-0.3-0.5-0.6-0.6-1c0.3,0.2,0.6,0.5,0.8,0.8l2.2,2.6c1.9,2.2,4.5,5.6,7.7,9.7
					c6.4,8.3,14.8,20,23.9,33c9.1,13,17.4,24.8,23.6,33.2l7.4,9.9l2,2.7C664.6,707.1,664.8,707.4,665,707.8"/>
				<path id="Path_258" class="st2" d="M768.8,648.1c-0.3,0.3-0.6,0.5-1,0.7l-3,1.8l-11.1,6.4c-9.4,5.4-22.3,13-36.5,21.5
					c-14.2,8.4-27.2,16-36.7,21.2c-4.8,2.6-8.6,4.7-11.3,6.1l-3.1,1.6c-0.4,0.2-0.7,0.4-1.1,0.5c0.3-0.3,0.6-0.5,1-0.7l3-1.8
					l11.1-6.4c9.4-5.4,22.3-13,36.5-21.5c14.2-8.5,27.2-16,36.7-21.2c4.8-2.6,8.6-4.7,11.3-6.1l3.1-1.6
					C768,648.3,768.4,648.2,768.8,648.1"/>
				<path id="Path_351" class="st3" d="M129.8,396.1l20.2-99l154.7,28.5l-20.2,99L129.8,396.1z"/>
				<path id="Path_259" class="st2" d="M305,326.9c-0.5,0.4-1.1,0.8-1.7,1.1l-5,2.8l-18.7,10l-62,32.8l-0.5,0.3l-0.4-0.4l-0.9-1
					l-46.5-52.2l-14-15.9l-3.7-4.4c-0.5-0.5-0.9-1-1.2-1.6c0.5,0.4,1,0.9,1.4,1.4l3.9,4.2l14.3,15.6l46.8,51.9l0.9,1l-0.9-0.2
					l62.2-32.4l18.9-9.7l5.2-2.6C303.7,327.4,304.4,327.1,305,326.9"/>
				<path id="Path_260" class="st2" d="M130.1,397.3c-0.2-0.3,14.2-11.7,32.2-25.5c18-13.8,32.8-24.8,33.1-24.5
					c0.2,0.3-14.2,11.7-32.2,25.5C145.1,386.7,130.3,397.6,130.1,397.3"/>
				<path id="Path_261" class="st2" d="M247,355.6c0.4-0.2,9.1,15.4,19.5,34.8s18.6,35.3,18.2,35.4c-0.4,0.2-9.1-15.4-19.5-34.8
					C254.8,371.6,246.6,355.8,247,355.6"/>
				<path id="Path_262" class="st1" d="M367.1,277.2l-97.8,9.7l-8.1-64.5l97.8-9.7L367.1,277.2z"/>
				<path id="Path_263" class="st2" d="M359.5,213.4c-0.2,0.3-0.5,0.7-0.8,0.9l-2.4,2.6l-9.1,9.5l-30.3,31.1l-0.2,0.3l-0.3-0.2
					l-0.8-0.5l-38.2-23.9l-11.5-7.3l-3.1-2c-0.4-0.2-0.7-0.5-1.1-0.8c0.4,0.2,0.8,0.4,1.1,0.6l3.2,1.9l11.7,7.1l38.4,23.7l0.8,0.5
					l-0.6,0.1l30.5-30.9l9.3-9.3l2.6-2.5C358.8,214,359.1,213.7,359.5,213.4"/>
				<path id="Path_264" class="st2" d="M269.7,287.7c-0.2-0.1,6.1-9.7,14-21.4c7.9-11.7,14.5-21,14.7-20.9c0.2,0.1-6.1,9.7-14,21.4
					S269.9,287.8,269.7,287.7"/>
				<path id="Path_265" class="st2" d="M330.8,241.4c0.2-0.2,8.5,7.9,18.7,18c10.1,10.1,18.2,18.4,18,18.6s-8.5-7.9-18.7-18
					C338.7,249.9,330.6,241.5,330.8,241.4"/>
				<path id="Path_266" class="st1" d="M231.6,199l-54-35.5l25.5-36l54,35.5L231.6,199z"/>
				<path id="Path_267" class="st2" d="M257,163.5c-0.3,0.1-0.6,0.1-0.8,0.1l-2.4,0.3l-8.9,1.1l-29.6,3.3l-0.2,0l-0.1-0.2l-0.2-0.6
					l-8.4-27.9c-1-3.5-1.9-6.4-2.5-8.5c-0.3-1-0.5-1.7-0.6-2.3c-0.1-0.3-0.2-0.5-0.2-0.8c0.1,0.3,0.2,0.5,0.3,0.8l0.8,2.3
					c0.6,2.1,1.6,4.9,2.7,8.4l8.6,27.9c0.1,0.2,0.1,0.4,0.2,0.5l-0.3-0.2l29.6-3.1l9-0.9l2.4-0.2C256.4,163.5,256.7,163.5,257,163.5
					"/>
				<path id="Path_268" class="st2" d="M177.4,164c0-0.2,7.5-2.4,16.9-5.1c9.4-2.6,17-4.7,17-4.5c0,0.2-7.5,2.4-16.9,5.1
					S177.5,164.2,177.4,164"/>
				<path id="Path_269" class="st2" d="M229.7,165.8c0.2,0,0.7,7.5,1.2,16.8c0.5,9.3,0.8,16.9,0.6,16.9s-0.7-7.5-1.2-16.8
					C229.8,173.4,229.5,165.8,229.7,165.8"/>
				<path id="Path_270" class="st1" d="M665.9,246.3c0-35.2-33.5-63-71.9-56.2c-23.8,4.1-42.8,22.3-47.6,46
					c-2.5,13.5,0.1,27.4,7.4,39h0l0.2,0.2c2.3,3.7,5.2,6.3,8.1,10.2l35,44c3.9,4.8,11,5.5,15.8,1.6c0.6-0.5,1.1-1,1.6-1.6l34.4-43.3
					c3.1-3.5,6-7.2,8.7-11l0.1-0.2h0C663,266.5,665.9,256.5,665.9,246.3 M605.7,271.2c-14.3,0.4-26.1-10.9-26.5-25.2
					c0.4-14.3,12.2-25.5,26.5-25.2c14.3-0.4,26.1,10.9,26.5,25.2C631.8,260.3,620,271.6,605.7,271.2"/>
				<path id="Path_271" class="st3" d="M712,344.5c0-19-18.1-34-38.8-30.3c-12.9,2.2-23.1,12-25.7,24.8c-1.4,7.3,0.1,14.8,4,21h0
					l0.1,0.1c1.2,2,2.8,3.4,4.4,5.5l18.9,23.7c2.1,2.6,5.9,3,8.5,0.9c0.3-0.3,0.6-0.5,0.9-0.9l18.5-23.3c1.7-1.9,3.3-3.9,4.7-5.9
					l0.1-0.1l0,0C710.5,355.4,712,350,712,344.5 M679.5,357.9c-7.7,0.2-14.1-5.9-14.3-13.6c0,0,0,0,0,0c0.2-7.7,6.6-13.8,14.3-13.6
					c7.7-0.2,14.1,5.9,14.3,13.6C693.6,352,687.2,358.1,679.5,357.9C679.5,357.9,679.5,357.9,679.5,357.9"/>
			</g>
		</g>
	</g>
	<g id="Group_451" transform="translate(881.833 165)">
		<g>
			<defs>
				<rect id="SVGID_3_" x="57" y="68" width="757.7" height="720.8"/>
			</defs>
			<clipPath id="SVGID_4_">
				<use xlink:href="#SVGID_3_"  style="overflow:visible;"/>
			</clipPath>
			<g id="Group_450" transform="translate(0 0)" class="st4">
				<path id="Path_272" class="st5" d="M771.9,735.5c0,0.2-150.2,0.4-335.5,0.4c-185.3,0-335.5-0.2-335.5-0.4s150.2-0.4,335.5-0.4
					C621.7,735.2,771.9,735.3,771.9,735.5"/>
			</g>
		</g>
	</g>
	<path id="Path_273" class="st6" d="M1226.3,404.2l10,134.2c1.6,21.9,20.8,38.9,43.9,38.9c25.5,0,45.6-20.4,43.9-44.6
		c-0.9-12.8-1.7-23.2-1.7-23.2s34.2-5,34.6-37.5c0.2-18.8-3.2-61.3-6.1-93.9c-2-22-21.4-39-44.7-39h-20.7
		C1250.1,341,1223.2,370.5,1226.3,404.2"/>
	<path id="Path_274" class="st7" d="M1322.5,509c-15.7,0.3-31.2-3.9-44.6-12c0,0,10.5,23.4,44.7,20.4L1322.5,509z"/>
	<path id="Path_275" class="st5" d="M1340.4,417.2c0,2.6-2.1,4.7-4.7,4.7c-2.5,0.3-4.8-1.6-5-4.1c0,0,0,0,0-0.1
		c0-2.6,2.1-4.7,4.7-4.7C1337.9,412.8,1340.1,414.6,1340.4,417.2C1340.4,417.2,1340.4,417.2,1340.4,417.2"/>
	<path id="Path_276" class="st5" d="M1345.1,410.6c-0.6,0.6-4.3-2-9.6-2c-5.3-0.1-9.1,2.5-9.7,1.9c-0.3-0.3,0.3-1.4,2-2.5
		c2.3-1.5,5-2.3,7.7-2.3c2.7,0,5.4,0.8,7.6,2.3C1344.9,409.2,1345.4,410.3,1345.1,410.6"/>
	<path id="Path_277" class="st5" d="M1289.1,417.2c0,2.6-2.1,4.7-4.7,4.7c-2.5,0.3-4.8-1.6-5-4.1c0,0,0,0,0-0.1
		c0-2.6,2.1-4.7,4.7-4.7C1286.6,412.8,1288.8,414.6,1289.1,417.2C1289.1,417.2,1289.1,417.2,1289.1,417.2"/>
	<path id="Path_278" class="st5" d="M1293.5,411.5c-0.6,0.6-4.3-2-9.6-2c-5.3-0.1-9.1,2.5-9.7,1.9c-0.3-0.3,0.3-1.4,2-2.5
		c2.3-1.5,5-2.3,7.7-2.3c2.7,0,5.4,0.8,7.6,2.3C1293.2,410.1,1293.7,411.2,1293.5,411.5"/>
	<path id="Path_279" class="st5" d="M1312.5,448.5c2.8-0.8,5.6-1.3,8.5-1.5c1.3-0.1,2.6-0.4,2.8-1.3c0.1-1.3-0.2-2.6-0.9-3.8l-4-9.7
		c-5.5-13.8-9.5-25.2-8.9-25.4s5.5,10.8,11,24.6c1.3,3.4,2.6,6.7,3.8,9.8c0.8,1.5,1.1,3.3,0.7,5c-0.4,0.9-1.2,1.6-2.2,1.9
		c-0.7,0.2-1.5,0.3-2.3,0.3C1318.3,448.8,1315.4,448.8,1312.5,448.5"/>
	<path id="Path_280" class="st5" d="M1297.1,452c0.9,0,0.9,5.4,5.7,9.2c4.9,3.8,11,3.2,11,4c0.1,0.3-1.4,1.1-3.9,1.1
		c-3.3,0.1-6.6-1-9.2-3c-2.5-1.9-4.1-4.7-4.5-7.7C1296,453.3,1296.7,451.9,1297.1,452"/>
	<path id="Path_281" class="st5" d="M1294.8,392c-0.5,1.4-5.8,0.7-11.9,1.4c-6.2,0.6-11.2,2.3-12,1.1c-0.4-0.6,0.5-1.9,2.5-3.2
		c2.7-1.6,5.7-2.7,8.9-2.9c3.2-0.4,6.3,0,9.3,1.1C1293.9,390.3,1295,391.3,1294.8,392"/>
	<path id="Path_282" class="st5" d="M1343.2,396.1c-0.9,1.1-4.5,0-8.9-0.1c-4.4-0.2-8,0.8-8.9-0.4c-0.4-0.6,0.2-1.7,1.8-2.8
		c2.2-1.3,4.7-2,7.2-1.9c2.5,0,5,0.8,7.1,2.3C1343.1,394.4,1343.6,395.6,1343.2,396.1"/>
	<path id="Path_283" class="st6" d="M1237.8,428.6c-0.6-0.2-23.5-6.6-22.7,15.6c0.7,22.2,24.1,16.9,24.1,16.3
		C1239.2,459.8,1237.8,428.6,1237.8,428.6"/>
	<path id="Path_284" class="st7" d="M1231.7,452.2c-0.1-0.1-0.4,0.3-1.1,0.6c-1,0.4-2,0.5-3,0.2c-2.5-0.8-4.7-4.4-5-8.4
		c-0.1-1.9,0.2-3.8,1-5.6c0.4-1.4,1.5-2.6,3-3.1c0.9-0.3,2,0.1,2.4,1c0.3,0.6,0.2,1.1,0.3,1.1c0.1,0.1,0.5-0.4,0.3-1.3
		c-0.2-0.6-0.5-1-1-1.4c-0.7-0.4-1.5-0.6-2.3-0.5c-1.9,0.4-3.5,1.7-4.1,3.6c-0.9,1.9-1.3,4.1-1.2,6.2c0.3,4.5,2.9,8.6,6.3,9.4
		c1.3,0.3,2.6,0.1,3.7-0.7C1231.7,452.8,1231.8,452.3,1231.7,452.2"/>
	<path id="Path_285" class="st5" d="M1224.8,427.8c4.5-0.3,8.8,1.8,11.3,5.5c1.5,3.2,1.9,6.8,3.4,9.9c1.5,3.2,4.9,6.1,8.5,5.2
		c2.4-0.7,4.3-2.6,4.9-5.1c0.5-2.4,0.5-4.8,0.1-7.2c-1.4-10.4-3.7-20.6-4.1-31.1c-0.4-10.4,1.1-21.3,6.9-30.2
		c5.8-8.9,16.4-15.4,27.3-14.6c7.3,0.6,13.9,4.2,21.1,5.1c8.6,1.1,17.3-1.6,23.7-7.5c0.8-0.7,4.4-3,4.4-3c-0.1-2.5-1-4.9-2.5-6.9
		c-14.3-12.6-40.1-16.1-59-11.6c-18.9,4.5-36.6,17.2-44.8,34C1217.9,387.4,1220.3,410.8,1224.8,427.8"/>
	<path id="Path_286" class="st8" d="M1351.4,373c0,0-89.7-27.4-128.5,46.3c0,0-5.8-18.4-5.8-28.3c1.2-27.5,20.2-51.1,46.8-58.3
		C1263.8,332.7,1328,309.4,1351.4,373"/>
	<path id="Path_287" class="st5" d="M1274.3,374.8c3.4,5,8.8,8.2,14.8,8.7c6,0.5,12-1.7,16.2-6c2,4.4,6.5,7.1,11.3,6.8
		c4.8-0.3,8.9-3.4,10.5-7.9c2.5,2.6,5.4,4.7,8.7,6.1c3.4,1.4,7.3,0.6,10-2c2.1-3,1.8-7-0.6-9.8c-2.5-2.7-5.6-4.7-9.1-5.8
		c-10.7-4.4-22.3-6.1-33.8-4.9c-11.5,1.2-22,6.7-29.7,15.4"/>
	<g>
		<defs>
			<rect id="SVGID_5_" x="1217.1" y="328.5" width="134.3" height="90.8"/>
		</defs>
		<clipPath id="SVGID_6_">
			<use xlink:href="#SVGID_5_"  style="overflow:visible;"/>
		</clipPath>
		<g id="Group_452" transform="translate(987.595 201.301)" class="st9">
			<path id="Path_288" class="st10" d="M363.8,171.7c-7.6-7.6-17.8-12-28.5-12.3c-26.5-1.1-76,13-100,58.6c0,0-5.8-18.4-5.8-28.3
				c1.2-27.5,20.2-51.1,46.8-58.3C276.3,131.4,340.4,108.1,363.8,171.7"/>
		</g>
	</g>
	<path id="Path_289" class="st11" d="M1226.6,410.7c13.8-19.4,31.6-35.6,52.3-47.5c20.6-12.2,54.7-24.3,78.2-30.3
		c7-2.2,14.3-2.9,21.6-2.2c7.2,1.2,14.2,5.7,16,12.4c2.2,8.4-13.5,21.4-20.9,26.5c-7.3,4.6-14.8,8.8-22.5,12.6
		c0,0,0.2-15.6-26.1-18.8C1289.5,359.1,1226.6,410.7,1226.6,410.7"/>
	<path id="Path_290" class="st2" d="M1300.2,347c8.1-4.1,16.9-7,25.9-8.4c-2.2-1.6-4.5-3-7-4c-7,1.1-13.8,3.3-20.2,6.4L1300.2,347z"
		/>
	<path id="Path_291" class="st8" d="M1373,537.4l-28.5-6l-11.6-2.7l-9.6-14.2c0,0-4.6,25.4-21.8,39c-4.8,3.7-11,5.1-16.9,3.9
		c-3.9-0.8-8.5-1.7-11.9-2.6c-0.7-0.2-1.5-0.4-2.4-0.7c-12.3-4.3-22.7-12.8-29.3-24c-3.8-6.5-7.1-13.1-6-15.6l-13.5,26.6l-79.6,34.8
		l-45.2,104.8l87.6,24.6l2.7,86.3l-16.5,108.9l247.7,0.2l-8.8-242.2"/>
	<path id="Path_292" class="st5" d="M1308.9,631.1c-0.5,0.1-1,0.1-1.6,0l-4.4-0.1l-15.7-0.5h-0.3l0-0.3c-0.3-6.5-0.6-14.2-0.9-22.4
		c-0.4-11.8-0.8-22.6-1.1-30.4c-0.1-3.8-0.2-6.9-0.2-9.2c0-1,0-1.9,0-2.5c0-0.3,0-0.6,0-0.9c0.1,0.3,0.1,0.6,0.1,0.9
		c0,0.7,0.1,1.5,0.2,2.5c0.1,2.3,0.3,5.4,0.5,9.2c0.3,7.9,0.8,18.6,1.3,30.4c0.3,8.2,0.6,15.9,0.8,22.4l-0.3-0.3l15.7,0.8l4.4,0.3
		C1307.9,631,1308.4,631,1308.9,631.1"/>
	<path id="Path_293" class="st5" d="M1295.4,596.1c0.3-0.2,0.8-0.4,1.2-0.4c1.2-0.1,2.3,0.2,3.3,0.9c0.7,0.4,1.2,1,1.6,1.7
		c0.4,0.8,0.6,1.7,0.4,2.6c-0.4,2.1-2,3.8-4,4.3c-2.1,0.4-4.3-0.3-5.8-2c-1.1-1.3-1.5-3-1.1-4.7c0.3-1.1,0.8-2.1,1.6-2.8
		c0.6-0.5,1-0.7,1-0.7c0,0-0.3,0.3-0.8,0.9c-0.7,0.8-1.1,1.7-1.3,2.7c-0.3,1.5,0.1,3,1.1,4.1c1.3,1.4,3.2,2,5,1.7
		c1.8-0.5,3.2-1.9,3.5-3.7c0.2-1.5-0.4-3-1.6-3.8c-0.8-0.6-1.9-1-2.9-1C1295.9,596.1,1295.5,596.2,1295.4,596.1"/>
	<path id="Path_294" class="st5" d="M1292.8,565.7c0.4-0.3,0.8-0.5,1.2-0.5c1.3-0.2,2.6-0.1,3.7,0.5c0.8,0.4,1.5,1,2,1.7
		c0.6,0.8,0.9,1.8,0.8,2.8c-0.1,2.4-1.7,4.4-4,5.1c-2.3,0.6-4.8-0.2-6.3-2.1c-0.6-0.8-1-1.7-1.1-2.7c-0.1-0.8,0.1-1.7,0.4-2.5
		c0.5-1.1,1.3-2.1,2.4-2.7c0.4-0.3,0.8-0.4,1.3-0.5c0,0.1-0.4,0.2-1.1,0.7c-0.9,0.7-1.6,1.6-2,2.7c-0.6,1.5-0.3,3.3,0.7,4.6
		c1.4,1.6,3.5,2.3,5.5,1.8c2-0.6,3.3-2.4,3.5-4.4c0.1-1.7-0.9-3.2-2.3-4c-1-0.6-2.2-0.8-3.4-0.7
		C1293.2,565.6,1292.8,565.8,1292.8,565.7"/>
	<path id="Path_295" class="st5" d="M1284.7,681.9c0.1-0.1,0.2-0.1,0.4-0.2l1.1-0.4c1-0.3,2.5-0.9,4.3-1.7c5.1-2.4,9.8-5.6,13.9-9.4
		c6-5.6,11.4-11.9,16-18.8c5.7-8.3,10.9-16.9,15.6-25.7c8.4-16.1,15.8-32.7,22.1-49.7c2.5-6.5,4.4-11.8,5.8-15.4
		c0.7-1.8,1.2-3.2,1.6-4.2c0.2-0.4,0.3-0.8,0.4-1.1c0-0.1,0.1-0.3,0.2-0.4c0,0.1,0,0.3-0.1,0.4c-0.1,0.3-0.2,0.7-0.3,1.1l-1.4,4.2
		c-1.3,3.7-3.1,9-5.5,15.5c-6.2,17.1-13.5,33.7-21.9,49.9c-4.7,8.9-9.9,17.5-15.7,25.8c-4.6,6.9-10.1,13.2-16.2,18.8
		c-4.2,3.8-9,6.9-14.2,9.3c-1.4,0.6-2.9,1.2-4.4,1.6l-1.2,0.3C1285,681.9,1284.9,681.9,1284.7,681.9"/>
	<path id="Path_296" class="st12" d="M1336.9,653.2c0.6,0,15.7-1,15.7-1s-6.2,10.5-12.7,14.4h-13.2L1336.9,653.2z"/>
	<path id="Path_297" class="st5" d="M1282.1,713.6c0.3-0.2,0.6-0.4,0.9-0.6l2.5-1.7c2.2-1.5,5.4-3.6,9.2-6.4
		c7.6-5.5,17.7-13.8,28.5-23.2c5.4-4.7,10.6-9.1,15.1-13.4c4-3.7,7.7-7.7,11.1-12c2.3-2.9,4.3-5.9,6.1-9.1c0.7-1.1,1.1-2,1.4-2.6
		c0.1-0.3,0.3-0.6,0.5-0.9c-0.1,0.3-0.2,0.7-0.4,1c-0.3,0.6-0.6,1.5-1.3,2.7c-1.7,3.3-3.7,6.4-5.9,9.3c-3.4,4.3-7.1,8.4-11,12.1
		c-4.5,4.3-9.6,8.8-15.1,13.5c-10.8,9.4-20.9,17.6-28.6,23c-3.9,2.7-7.1,4.8-9.3,6.2c-1.1,0.7-2,1.2-2.6,1.6
		C1282.7,713.3,1282.4,713.4,1282.1,713.6"/>
	<path id="Path_298" class="st5" d="M1239.6,873.5c0-0.1,0.1-0.2,0.2-0.3l0.6-0.9c0.6-0.8,1.4-2,2.5-3.6c2.3-3,5.8-7.3,10.4-12.3
		c9.3-10,22.4-23.5,36.8-38.6l37-38.4l11.3-11.6l3.1-3.1l0.8-0.8c0.1-0.1,0.2-0.2,0.3-0.3c-0.1,0.1-0.1,0.2-0.2,0.3l-0.8,0.8l-3,3.2
		l-11.1,11.7l-36.9,38.5c-14.4,15-27.5,28.5-37,38.4c-4.7,5-8.3,9.1-10.6,12.1c-1.2,1.5-2.1,2.7-2.7,3.5l-0.7,0.9
		C1239.8,873.3,1239.7,873.4,1239.6,873.5"/>
	<path id="Path_299" class="st8" d="M1371,536.6c1.3,1.8,30.6,4.9,37.8,11.7c7.2,6.8,78.8,58.7,78.8,58.7l-51,65.3l-33-6.9
		L1371,536.6z"/>
	<g id="Group_457" transform="translate(1065.365 304.822)" class="st13">
		<g id="Group_456" transform="translate(0)">
			<g>
				<defs>
					<rect id="SVGID_7_" x="356.3" y="296" width="65.9" height="71.6"/>
				</defs>
				<clipPath id="SVGID_8_">
					<use xlink:href="#SVGID_7_"  style="overflow:visible;"/>
				</clipPath>
				<g id="Group_455" class="st14">
					<path id="Path_300" d="M413.5,296l-57.2,68.5l14.9,3.1l51-65.3L413.5,296z"/>
				</g>
			</g>
		</g>
	</g>
	<path id="Path_301" class="st5" d="M1386.6,604.6c-0.3-0.7-0.5-1.5-0.6-2.3c-0.2-0.9-0.4-1.8-0.5-2.7c-0.1-1.1-0.4-2.3-0.4-3.6
		c-0.1-1.3-0.2-2.8-0.2-4.4c-0.1-1.6,0-3.3,0.1-5.1c0.3-3.9,0.9-7.7,1.9-11.5c1-3.8,2.4-7.4,4-11c0.8-1.6,1.5-3.2,2.4-4.5
		c0.8-1.4,1.6-2.7,2.4-3.8c0.8-1.1,1.5-2.1,2.2-3c0.6-0.8,1.1-1.5,1.8-2.2c0.5-0.6,1-1.2,1.6-1.7c-0.4,0.7-0.9,1.3-1.4,1.9
		c-0.5,0.6-1.1,1.3-1.7,2.2c-0.6,0.9-1.4,1.9-2.1,3s-1.5,2.4-2.3,3.8c-0.8,1.4-1.5,2.9-2.3,4.5c-1.6,3.5-2.9,7.2-3.9,10.9
		c-0.9,3.7-1.6,7.5-1.9,11.4c-0.1,1.8-0.2,3.4-0.2,5c0,1.6,0,3,0.1,4.4c0,1.3,0.2,2.5,0.3,3.6c0.1,1.1,0.2,2,0.4,2.7
		C1386.5,603.1,1386.6,603.9,1386.6,604.6"/>
	<path id="Path_302" class="st5" d="M1409.5,658.3c-2.3-4.3-4.5-8.7-6.3-13.3c-2.1-4.4-4-9-5.6-13.6c2.3,4.3,4.5,8.7,6.3,13.3
		C1406,649.2,1407.9,653.7,1409.5,658.3"/>
	<path id="Path_303" class="st5" d="M1184.4,610.9c-0.1,0.1-1.3-2.1-3.7-5.3c-3-4.2-6.5-8.2-10.3-11.7c-3.9-3.6-8.1-6.7-12.6-9.5
		c-3.5-2.1-5.8-3.2-5.7-3.3c0.6,0.2,1.1,0.4,1.7,0.7c1.1,0.5,2.5,1.2,4.3,2.2c4.6,2.6,9,5.8,12.9,9.4c3.9,3.6,7.3,7.6,10.3,11.9
		c0.9,1.3,1.7,2.7,2.5,4C1184,609.8,1184.2,610.3,1184.4,610.9"/>
	<g id="Group_460" transform="translate(941.887 332.038)" class="st13">
		<g id="Group_459" transform="translate(0)">
			<g>
				<defs>
					<rect id="SVGID_9_" x="154.9" y="340.4" width="100.4" height="35.3"/>
				</defs>
				<clipPath id="SVGID_10_">
					<use xlink:href="#SVGID_9_"  style="overflow:visible;"/>
				</clipPath>
				<g id="Group_458" class="st15">
					<path id="Path_304" d="M154.9,348.6l3.5-8.2l96.9,25l-3.8,10.2L154.9,348.6z"/>
				</g>
			</g>
		</g>
	</g>
	<path id="Path_305" class="st12" d="M1355.4,648.3h36.9v14.5l-47.2-0.3C1348.9,658.1,1352.4,653.4,1355.4,648.3"/>
	<g id="Group_463" transform="translate(990.173 282.963)" class="st16">
		<g id="Group_462">
			<g>
				<defs>
					<rect id="SVGID_11_" x="233.7" y="260.4" width="109.3" height="49.7"/>
				</defs>
				<clipPath id="SVGID_12_">
					<use xlink:href="#SVGID_11_"  style="overflow:visible;"/>
				</clipPath>
				<g id="Group_461" class="st17">
					<path id="Path_306" d="M233.7,261.2c1.3,11.2,2.8,22.8,8.6,32.7c5.8,9.8,17.3,17.6,29.1,16c7.9-1.1,14.5-6.1,19.9-11.7
						s9.8-11.9,15.7-17c3.5,3.6,7.5,6.9,11.8,9.6c4.4,2.8,9.6,4.1,14.7,3.7c4.5,0,8.4-2.9,9.6-7.2c-4.5,1.4-9.4,1.6-14,0.4
						c-6-1.1-11.7-3.6-16.5-7.2c-3.2-2.4-4.4-6-8.5-5.8c-3.8,0.2-6.7,3-9.2,5.7c-4,4.4-8.4,8.4-13.2,12c-4.1,3.6-9.3,5.5-14.7,5.6
						c-9.5-0.2-17.4-7.3-22.6-14.9c-4.8-6.9-8.4-14.6-10.6-22.8"/>
				</g>
			</g>
		</g>
	</g>
	<path id="Path_307" class="st5" d="M1335.5,530.2c0.1,0.3,0.1,0.5,0.2,0.8c0.1,0.5,0.2,1.3,0.3,2.3c0.2,2,0.5,4.9,0.5,8.6
		c0.2,9.5-0.7,18.9-2.8,28.2l0,0.2l0,0.2l-0.2,0.1c-5.4,1.2-11,1.1-16.3-0.4c-4.3-1.1-8.4-2.9-12.1-5.4c-2.5-1.6-4.7-3.6-6.6-5.8
		c-0.5-0.6-1-1.2-1.4-1.9c-0.2-0.2-0.3-0.4-0.4-0.7c2.5,3.1,5.5,5.8,8.8,7.9c3.7,2.4,7.7,4.1,12,5.2c5.2,1.4,10.7,1.5,15.9,0.3
		l-0.3,0.3c0-0.1,0-0.2,0-0.2c2.1-9.2,3.1-18.6,3-28c0-3.6-0.2-6.5-0.3-8.6c-0.1-0.9-0.1-1.7-0.1-2.3
		C1335.4,530.7,1335.4,530.5,1335.5,530.2"/>
	<path id="Path_308" class="st5" d="M1289.4,558.6c-0.1,0.3-0.3,0.6-0.5,0.9c-0.5,0.8-1.1,1.6-1.7,2.3c-2.3,2.7-4.8,5.2-7.5,7.5
		c-1.7,1.5-3.6,3-5.6,4.7c-1,0.8-2.1,1.7-3.2,2.5c-1.2,0.9-2.4,1.6-3.8,2.3c-2.8,1.5-6,2.4-9.1,2.6c-3.5,0.3-6.9-0.5-10-2.1
		c-2.9-1.7-5.6-3.8-7.8-6.3c-2.1-2.2-4.1-4.6-5.9-7.1c-3.1-4.2-5.6-8.7-7.7-13.4c-1.4-3.2-2.5-6.4-3.4-9.8c-0.3-1.2-0.5-2.1-0.6-2.7
		c-0.1-0.3-0.1-0.6-0.1-1c0.1,0.3,0.2,0.6,0.3,0.9c0.2,0.6,0.4,1.5,0.8,2.7c1,3.3,2.2,6.5,3.6,9.6c2.1,4.7,4.8,9.1,7.8,13.2
		c1.8,2.4,3.8,4.8,5.9,7c2.2,2.4,4.8,4.5,7.7,6.1c2.9,1.6,6.2,2.3,9.6,2c3.1-0.2,6.1-1.1,8.9-2.5c1.3-0.6,2.5-1.4,3.7-2.2
		c1.1-0.8,2.2-1.7,3.2-2.5c2.1-1.6,4-3.2,5.7-4.6c2.7-2.2,5.2-4.7,7.6-7.3c0.8-0.9,1.4-1.7,1.8-2.2
		C1289,559.1,1289.2,558.8,1289.4,558.6"/>
	<path id="Path_309" class="st6" d="M1256.8,724l11.7-16.2c0,0,8-26.5,6.9-30.2s-4.6-17.5-3.8-17.7c0.8-0.2,9.6-3.3,14.3,7.8
		c2.6,7,4,14.4,4.2,21.9c0.2,2.9,2.8,5,5.7,4.8c0.2,0,0.5-0.1,0.7-0.1c8.1-1.6,21.5-4,24.7-3.3c4.1,1.4,7.5,4.5,9.2,8.5
		c0.4,1.9-2.8,6.1-2.8,6.1c2.2,1,4,2.7,5.2,4.8c0.2,0.4,0.3,0.8,0.4,1.1c0.8,2.4,0.1,5-1.6,6.8l-1.2,1.3c0,0,4.9,1.3,5.5,3.9
		c0.3,2,0.3,4-0.2,5.9l-4.6,4.5c1.3,1.1,2.1,2.6,2.4,4.3c0.2,2.5-6.7,8.6-6.7,8.6l-29.7,10.1l-11.8,2.9L1256.8,724z"/>
	<path id="Path_310" class="st7" d="M1327.7,705.7c0,0.2-4.6,1-10.3,2.1c-5.7,1.1-10.3,2.1-10.3,1.9c0.9-0.4,1.9-0.8,2.9-1
		c1.8-0.5,4.4-1.1,7.3-1.6c2.9-0.6,5.5-0.9,7.4-1.2C1325.6,705.7,1326.7,705.6,1327.7,705.7"/>
	<path id="Path_311" class="st7" d="M1330.4,719.7c-2.5,1.1-5.2,2-7.9,2.7c-2.6,0.9-5.3,1.5-8.1,2c2.5-1.1,5.2-2,7.9-2.7
		C1325,720.7,1327.7,720.1,1330.4,719.7"/>
	<path id="Path_312" class="st7" d="M1332.2,733.5c-2.7,1.5-5.5,2.8-8.4,3.9c-2.8,1.3-5.7,2.4-8.7,3.2c2.7-1.5,5.5-2.8,8.4-3.9
		C1326.3,735.3,1329.2,734.3,1332.2,733.5"/>
	<path id="Path_313" class="st6" d="M1188.3,823.9l109.3-69.6l-27.6-47.4l-99.8,48.7l11.3-51.2l-67.7-19L1097,773
		c-2.6,39,30.3,70.4,70,60.2C1174.5,831.3,1181.7,828.1,1188.3,823.9"/>
	<path id="Path_314" class="st7" d="M1155.8,783.1c-0.2-0.4-0.3-0.9-0.4-1.3c-0.2-1.2-0.4-2.4-0.4-3.7c-0.1-4.1,0.9-8.2,2.8-11.8
		c2-3.7,4.8-6.9,8.3-9.2c1.1-0.7,2.2-1.4,3.3-1.9c0.4-0.2,0.9-0.4,1.3-0.5c0.1,0.1-1.8,0.9-4.3,2.8c-3.3,2.4-6,5.6-7.9,9.2
		c-1.8,3.6-2.9,7.5-3,11.5C1155.5,781.2,1155.9,783,1155.8,783.1"/>
	<path id="Path_315" class="st6" d="M1436.5,672.4c0.7-0.9,77.8,43.8,77.8,43.8l24.7,107l35.6,12.4c0,0,11.1-119.1,2.7-137.6
		c-8.5-18.5-94.2-85.2-94.2-85.2L1436.5,672.4z"/>
	<path id="Path_316" class="st7" d="M1531.2,708c-1.8,2.5-4,4.5-6.7,6c-2.6,1.7-5.5,2.8-8.5,3.3c2.8-1.2,5.5-2.5,8.1-3.9
		C1526.6,711.7,1529,709.9,1531.2,708"/>
	<path id="Path_317" class="st5" d="M1343.7,672.7l6.1,102.7l123.3-7.9l-3.7-76.5l-18-23L1343.7,672.7z"/>
	<path id="Path_318" class="st18" d="M1315.7,777.7c0.4,2,10.8,95,10.8,95l183.5-12.1l31.1-3.9l-14.3-86.6l-21.9-5L1315.7,777.7z"/>
	<g id="Group_465" transform="translate(1025.082 367.215)">
		<g>
			<defs>
				<rect id="SVGID_13_" x="290.6" y="397.8" width="201.9" height="107.7"/>
			</defs>
			<clipPath id="SVGID_14_">
				<use xlink:href="#SVGID_13_"  style="overflow:visible;"/>
			</clipPath>
			<g id="Group_464" transform="translate(0)" class="st19">
				<path id="Path_319" class="st20" d="M479.8,397.8l-189.2,12.7c0.4,2,10.8,95,10.8,95l191.1-12.6L479.8,397.8z"/>
			</g>
		</g>
	</g>
	<path id="Path_320" class="st21" d="M1454.6,768.7l-104.8,6.7l-6.1-102.7l107.7-4.6L1454.6,768.7z"/>
	<path id="Path_321" class="st5" d="M1382.8,671l2.2,31.7l5.6-3l3.1,3l3.9-3l6,3v-32.5L1382.8,671z"/>
	<path id="Path_322" class="st8" d="M1426.6,770.8l-7.2-77.1l70.1,18.3l6.8,53.2L1426.6,770.8z"/>
	<path id="Path_323" class="st5" d="M1489.5,712.1c-0.1,0.2-0.3,0.4-0.4,0.6l-1.4,1.5l-5.2,5.6l-17.9,19.1l-0.3,0.3l-0.3-0.3
		l-9.5-9.5l-25-25.1l-7.5-7.7l-2-2.1c-0.2-0.2-0.5-0.5-0.7-0.8c0.3,0.2,0.5,0.4,0.8,0.7l2.1,2l7.7,7.5l25.1,24.9l9.5,9.5h-0.6
		l18.1-18.9l5.3-5.4l1.4-1.4C1489.2,712.3,1489.3,712.2,1489.5,712.1"/>
	<path id="Path_324" class="st5" d="M1450.2,726.3c0.2,0.1-4.8,9.2-11.2,20.3c-6.4,11.1-11.7,20.1-11.8,20
		c-0.2-0.1,4.8-9.2,11.2-20.3S1450.1,726.2,1450.2,726.3"/>
	<path id="Path_325" class="st5" d="M1494.7,765.3c-0.2,0.1-5-7.3-10.8-16.5c-5.8-9.2-10.4-16.7-10.2-16.8s5,7.3,10.8,16.5
		C1490.3,757.6,1494.8,765.2,1494.7,765.3"/>
	<path id="Path_326" class="st22" d="M1464.3,767.8l-4.6-49.1l44.6,11.7l4.3,33.9L1464.3,767.8z"/>
	<g id="Group_469" transform="translate(1079.818 349.625)" class="st23">
		<g id="Group_468">
			<g>
				<defs>
					<rect id="SVGID_15_" x="379.9" y="369.1" width="48.9" height="49.1"/>
				</defs>
				<clipPath id="SVGID_16_">
					<use xlink:href="#SVGID_15_"  style="overflow:visible;"/>
				</clipPath>
				<g id="Group_467" class="st24">
					<path id="Path_327" class="st25" d="M384.4,418.2l-4.6-49.1l44.6,11.7l4.3,33.9L384.4,418.2z"/>
				</g>
			</g>
		</g>
	</g>
	<path id="Path_328" class="st5" d="M1504.3,730.4c-0.3,0.5-0.7,0.9-1.1,1.3l-3.3,3.6l-11.4,12.2l-0.3,0.3l-0.3-0.3l-6.1-6.1
		c-6.2-6.2-11.8-11.9-15.9-16l-4.7-4.9c-0.6-0.6-1.2-1.2-1.7-1.9c0.7,0.5,1.3,1.1,1.9,1.7l4.9,4.7c4.1,4,9.8,9.6,16,15.8l6.1,6.1
		h-0.6l11.6-12l3.4-3.4C1503.4,731.1,1503.9,730.7,1504.3,730.4"/>
	<path id="Path_329" class="st5" d="M1479.3,739.5c-2.1,4.5-4.4,8.8-7,13c-2.3,4.3-4.9,8.6-7.7,12.6c2.1-4.5,4.4-8.8,7-13
		C1474,747.8,1476.5,743.6,1479.3,739.5"/>
	<path id="Path_330" class="st5" d="M1507.6,764.3c-2.6-3.3-4.9-6.8-7-10.4c-2.3-3.5-4.5-7.1-6.4-10.8c2.6,3.3,4.9,6.8,7,10.4
		C1503.6,756.9,1505.7,760.5,1507.6,764.3"/>
	<path id="Path_331" class="st26" d="M1492.7,728.3v3.9l6.5,0.7l0.3-3L1492.7,728.3z"/>
	<path id="Path_332" class="st26" d="M1469.7,708.3v5.8l12.3,1.9l0.7-4.4L1469.7,708.3z"/>
	<path id="Path_333" class="st8" d="M1421.7,799.5l-0.6-28.7l-24.5,1.6l2.6,29.2L1421.7,799.5z"/>
	<path id="Path_352" class="st12" d="M1460.4,818.3l41.2-3.7l3.4,34.6l-41.2,3.7L1460.4,818.3z"/>
	<path id="Path_334" class="st5" d="M1505,849.2c0-0.2-0.1-0.4-0.1-0.7c-0.1-0.5-0.1-1.1-0.2-1.9c-0.2-1.7-0.5-4-0.8-7
		c-0.6-6.1-1.6-14.7-2.7-25l0.4,0.3l-41.1,3.8c-0.1,0.1,0.7-0.8,0.4-0.4v0.1v0.1l0,0.1l0,0.3l0.1,0.6l0.1,1.2
		c0.1,0.8,0.2,1.6,0.2,2.3c0.2,1.5,0.3,3.1,0.5,4.6c0.3,3,0.6,6,0.9,8.9c0.6,5.8,1.1,11.3,1.6,16.4l-0.4-0.3l29.7-2.5l8.4-0.7
		l2.3-0.2C1504.4,849.2,1504.7,849.2,1505,849.2c-0.3,0.1-0.5,0.1-0.7,0.1l-2.2,0.2l-8.3,0.8l-29.8,2.9l-0.3,0l0-0.3
		c-0.5-5.1-1.1-10.6-1.7-16.4c-0.3-2.9-0.6-5.9-0.9-8.9c-0.2-1.5-0.3-3-0.5-4.6c-0.1-0.8-0.2-1.5-0.2-2.3l-0.1-1.2l-0.1-0.6l0-0.3
		l0-0.1v-0.1v-0.1c-0.3,0.4,0.4-0.5,0.4-0.4l41.1-3.6l0.3,0l0,0.3c1,10.4,1.8,19.1,2.3,25.2c0.3,3,0.5,5.3,0.6,7
		c0.1,0.8,0.1,1.4,0.1,1.8C1505,848.8,1505,849,1505,849.2"/>
	<path id="Path_335" class="st5" d="M1498.3,822.9c0,0.2-7.2,1.1-16.1,2s-16.1,1.4-16.1,1.2c0-0.2,7.2-1.1,16.1-2
		C1491.1,823.3,1498.3,822.7,1498.3,822.9"/>
	<path id="Path_336" class="st5" d="M1498.1,828.8c-1.4,0.5-2.9,0.8-4.4,1.1c-2.8,0.5-6.6,1.1-10.9,1.6c-4.3,0.5-8.2,0.7-11,0.8
		c-1.5,0.1-3,0.1-4.6,0c1.5-0.3,3-0.4,4.5-0.5c2.8-0.2,6.7-0.6,10.9-1.1c4.2-0.5,8.1-1,10.9-1.4
		C1495.1,829,1496.6,828.8,1498.1,828.8"/>
	<path id="Path_337" class="st5" d="M1499.8,841.6c-1.4,0.5-2.9,0.8-4.4,1.1c-2.8,0.5-6.6,1.1-10.9,1.6s-8.2,0.7-11,0.8
		c-1.5,0.1-3,0.1-4.6,0c1.5-0.3,3-0.4,4.5-0.5c2.8-0.2,6.7-0.6,10.9-1.1c4.2-0.5,8.1-1,10.9-1.4
		C1496.8,841.9,1498.3,841.7,1499.8,841.6"/>
	<path id="Path_338" class="st5" d="M1497.7,835c0,0.2-6.7,1.3-15,2.4c-8.3,1.1-15.1,1.9-15.1,1.7s6.7-1.3,15-2.4
		C1490.9,835.6,1497.7,834.8,1497.7,835"/>
	<path id="Path_339" class="st6" d="M1534.1,888.6c0,0,33.9-21.3,36.5-32.2s4.2-20.8,4.2-20.8l-36.2-14.2l3.6,12.4
		c0,0-13,7.3-14.3,16.2c-0.9,5.9-17.7,16-17.7,16c-2.9-3.3-7.2-5.1-11.6-4.7l-14.1,0.9l9.5,20.4L1534.1,888.6z"/>
	<path id="Path_340" class="st7" d="M1547.3,859.4c-0.5,0.3-1,0.5-1.6,0.6c-1.1,0.3-2.6,0.7-4.5,1.2c-2.1,0.7-4.1,1.8-5.9,3.2
		c-2.2,1.8-4.6,3.3-7.2,4.4c-4.9,2-10.2,2.4-15.4,1.2c-0.9-0.2-1.8-0.5-2.6-0.9c-0.7-0.3-1-1-0.9-1.8c0.1-0.5,0.3-0.8,0.8-1
		c0.3-0.1,0.5,0,0.5,0c0,0-0.2,0-0.4,0.2c-0.3,0.2-0.5,0.6-0.5,0.9c0,0.6,0.3,1.2,0.9,1.4c0.8,0.4,1.6,0.6,2.5,0.7
		c5,1,10.2,0.5,14.9-1.4c2.5-1.1,4.9-2.5,7.1-4.2c1.8-1.4,3.9-2.5,6.2-3.2c1.9-0.5,3.5-0.8,4.6-1
		C1546.2,859.6,1546.7,859.5,1547.3,859.4"/>
	<path id="Path_341" class="st7" d="M1523.8,875.9c-0.1,0.1-1.7-0.8-4.6-2c-3.8-1.5-7.7-2.4-11.7-2.8c-1.2-0.1-2.4-0.2-3.5-0.2h-0.2
		l-0.1-0.2c-1.8-2.6-3.9-5-6.3-7.1c-1.8-1.6-3-2.4-3-2.5c0.3,0.1,0.7,0.3,0.9,0.5c0.8,0.5,1.6,1,2.4,1.6c2.6,2,4.8,4.4,6.6,7
		l-0.3-0.2c1.1,0,2.3,0,3.5,0.2c4.1,0.4,8.1,1.4,11.9,3c1.1,0.5,2.2,1.1,3.3,1.7C1523.1,875.3,1523.5,875.6,1523.8,875.9"/>
	<path id="Path_342" class="st7" d="M1533,870.1c0.1,0.2-2.3,1-5,2.5c-2.7,1.4-4.6,2.9-4.8,2.8c1.2-1.5,2.7-2.6,4.4-3.4
		C1529.3,870.9,1531.1,870.3,1533,870.1"/>
	<path id="Path_343" class="st7" d="M1551.3,831.8c0,0.2-2.4,0-5.1,0.6c-2.7,0.7-4.6,2-4.7,1.8c1.2-1.3,2.8-2.2,4.5-2.5
		C1547.8,831.2,1549.6,831.2,1551.3,831.8"/>
	<rect id="Rectangle_418" x="938.8" y="233" class="st10" width="757.7" height="720.8"/>
	<path id="Path_344" class="st22" d="M1057.2,819.5c4.5,5,12,2.6,15.3-1c2.9-3.8,4.7-8.3,5.3-13.1c2.2-10.6,4.3-21.7,1-32.1
		c-0.9-3.2-2.6-6-5.1-8.3c-2.6-2.3-6.2-3.1-9.5-2.1c-3.8,1.3-5.9,5.1-7.3,8.7c-4.2,10.5-5.8,21.9-4.8,33.1
		C1052.1,810.1,1053.9,815.2,1057.2,819.5"/>
	<g id="Group_474" transform="translate(924.742 366.268)">
		<g id="Group_473">
			<g>
				<defs>
					<rect id="SVGID_17_" x="127" y="396.2" width="28.7" height="59.9"/>
				</defs>
				<clipPath id="SVGID_18_">
					<use xlink:href="#SVGID_17_"  style="overflow:visible;"/>
				</clipPath>
				<g id="Group_472" class="st27">
					<path id="Path_345" class="st8" d="M132.4,453.2c4.5,5,12,2.6,15.3-1c2.9-3.8,4.7-8.3,5.3-13.1c2.2-10.6,4.3-21.7,1-32.1
						c-0.9-3.2-2.6-6-5.1-8.3c-2.6-2.3-6.2-3.1-9.5-2.1c-3.8,1.3-5.9,5.1-7.3,8.7c-4.2,10.5-5.8,21.9-4.8,33.1
						C127.4,443.8,129.2,449,132.4,453.2"/>
				</g>
			</g>
		</g>
	</g>
	<path id="Path_346" class="st28" d="M1074.6,845.4c6.4-3.5,13.8-5,21.1-4.3c3.9,0,7.8,1.2,10.9,3.6c2.9,2.5,3.8,7.3,1.1,10
		c-1.9,1.4-4.1,2.2-6.5,2.2c-5.6,0.4-12,0-16.2,3.6c-2.4,2.1-3.8,5.3-6.8,6.4c-3.1,1-6.4-0.1-8.3-2.7c-1.7-2.5-2.3-5.6-1.7-8.6
		C1068.5,851.4,1070.9,847.6,1074.6,845.4"/>
	<path id="Path_347" class="st29" d="M1047,828.1c3.6-5.4,4.2-12.3,1.5-18.3c-2.8-5.9-7.2-10.9-12.7-14.5
		c-6.4-4.5-13.6-7.7-21.1-9.6c-3-0.9-6.1-1.1-9.2-0.7c-3.1,0.4-5.7,2.3-7.2,5c-1.8,4,0.7,8.5,3.3,12.1c4.5,6.4,9.5,12.4,15,18
		c4.2,4.9,9.6,8.5,15.6,10.6c6.2,1.7,12.5,0.9,15.3-3.4"/>
	<path id="Path_348" class="st5" d="M1064.5,900.5c0.1-0.8,0.2-1.6,0.1-2.5c0-1.8,0-4,0.1-6.7c0-3.3,0.3-6.6,0.7-9.9
		c0.6-4,1.4-8,2.7-11.8c1.2-3.9,3-7.6,5.2-11c1.9-2.8,4.4-5.1,7.3-6.9c2-1.2,4.2-2,6.4-2.5c0.9-0.1,1.7-0.3,2.5-0.6
		c-0.9,0-1.7,0-2.6,0.2c-2.4,0.4-4.6,1.1-6.7,2.3c-3.1,1.7-5.7,4.1-7.7,6.9c-2.4,3.4-4.2,7.2-5.4,11.2c-1.2,3.9-2.1,8-2.6,12
		c-0.4,3.3-0.5,6.7-0.4,10c0,2.8,0.2,5.1,0.3,6.7C1064.2,898.9,1064.3,899.7,1064.5,900.5"/>
	<path id="Path_349" class="st5" d="M1064.5,895.4c0-0.4,0-0.8,0-1.1c-0.1-0.9-0.2-1.9-0.3-3.2c-0.3-2.8-0.7-6.9-1-11.9
		c-0.7-10.1-1.1-24-0.8-39.4c0.3-15.4,1.4-29.3,2.6-39.3c0.3-2.5,0.6-4.8,0.9-6.8c0.3-2,0.5-3.7,0.8-5.1c0.2-1.3,0.4-2.4,0.5-3.2
		c0.1-0.4,0.1-0.8,0.1-1.1c-0.2,0.4-0.3,0.7-0.3,1.1c-0.2,0.8-0.4,1.9-0.7,3.2c-0.3,1.4-0.6,3.1-0.9,5.1s-0.7,4.2-1,6.8
		c-1.7,13.1-2.7,26.2-2.9,39.4c-0.3,13.2,0,26.3,1.1,39.5c0.4,5,0.9,9.1,1.3,11.9c0.2,1.3,0.4,2.4,0.5,3.2
		C1064.3,894.6,1064.4,895,1064.5,895.4"/>
	<path id="Path_350" class="st5" d="M1062.1,868.6c0-1.1-0.1-2.3-0.3-3.4c-0.5-3.1-1.1-6.1-2-9.1c-1.2-4.4-2.7-8.8-4.4-13.1
		c-2.1-5.3-4.5-10.4-7.4-15.3c-5-9.2-11.7-17.3-19.7-24.1c-1.4-1.2-2.9-2.3-4.4-3.2c-0.7-0.4-1.3-0.9-1.9-1.2l-1.7-0.9
		c-1-0.6-2.1-1.1-3.2-1.6c3.7,2.3,7.2,4.8,10.6,7.5c7.7,6.8,14.2,15,19.2,24c2.8,4.9,5.3,9.9,7.4,15.2c1.8,4.2,3.3,8.5,4.6,12.9
		c1.1,3.7,1.8,6.8,2.3,8.9C1061.5,866.3,1061.7,867.5,1062.1,868.6"/>
	<rect id="Rectangle_420" x="938.8" y="233" class="st10" width="757.7" height="720.8"/>
	<rect id="Rectangle_421" x="938.8" y="233" class="st10" width="757.7" height="720.8"/>
	<rect id="Rectangle_422" x="938.8" y="233" class="st10" width="757.7" height="720.8"/>
</g>
</svg>
