<?xml version="1.0" encoding="utf-8"?>
<!-- Generator: Adobe Illustrator 23.1.0, SVG Export Plug-In . SVG Version: 6.00 Build 0)  -->
<svg version="1.1" id="Слой_1" xmlns="http://www.w3.org/2000/svg" xmlns:xlink="http://www.w3.org/1999/xlink" x="0px" y="0px"
	 viewBox="0 0 850.4 850.4" style="enable-background:new 0 0 850.4 850.4;" xml:space="preserve">
<style type="text/css">
	.st0{fill:#B3CCFF;}
	.st1{fill:#7E9DE0;}
	.st2{fill:#B0C2FE;}
	.st3{fill:#95A9FE;}
	.st4{fill:#FFFFFF;}
	.st5{fill:#235893;}
	.st6{fill:#FC7575;}
	.st7{fill:#170F33;}
	.st8{fill:#FD5E5A;}
	.st9{fill:#2D1E66;}
	.st10{fill:#DFB866;}
	.st11{fill:#ECD4A3;}
	.st12{fill:#8937DC;}
	.st13{fill:#70A3FF;}
	.st14{fill:#385280;}
	.st15{fill:#5491FF;}
	.st16{fill:#547ABF;}
	.st17{opacity:0.18;fill:#FF815C;enable-background:new    ;}
	.st18{fill:#DAE6FF;}
	.st19{fill:#B3CBFF;}
	.st20{fill:#FF9999;}
	.st21{fill:#99D7FF;}
	.st22{fill:#0A4CFE;}
	.st23{fill:#0033BF;}
</style>
<g id="Group_376" transform="translate(-742.817 -823.94)">
	<path id="Path_88" class="st0" d="M1080,1166.2c-16.6,2-32.7,4.5-48,7.6l0,0c-101.6,20.5-101.6,53.3-101.7,55
		c0,1.4-0.2,76.7-0.2,76.5c0,15.7,0,25.9-0.1,39.9c0.1-31.5,65.8-53.4,149.9-63L1080,1166.2z"/>
	<path id="Path_89" class="st0" d="M1403.7,1199.7c-20.9-11.9-49.8-19.9-73.2-24.8l0,0c-61.2-13-139.5-17.3-212.2-12.3v116.1
		c105.3-7.1,226.8,3.7,285.1,36.8c17.3,9.8,25.5,20.3,25.5,30.5c0-0.5,0-1,0-1.5c0-11.5,0.2-109.7,0.2-112.4
		C1429.2,1216.9,1416.9,1207.3,1403.7,1199.7z"/>
	<path id="Path_90" class="st1" d="M1234.6,1172.8c-18.4-1.2-37.4-1.8-56.4-1.8c-16.6,0-33.2,0.5-49.4,1.4v95.3
		c17.2-0.9,34.6-1.4,52.1-1.4c18.5,0,36.5,0.5,53.8,1.5V1172.8z"/>
	<path id="Path_91" class="st1" d="M1324.2,1184.2c-18.4-3.7-38.5-6.7-59.7-8.9v94.7c21.4,2,41.4,4.9,59.7,8.5V1184.2z"/>
	<path id="Path_92" class="st1" d="M1398.5,1208.8c-8.4-4.6-17.2-8.5-26.3-11.6v93.7c12.6,4,24.7,9.3,36.3,15.7
		c3.5,2,6.8,4.1,10.1,6.4l0.2-80.8C1418.8,1223.8,1412.7,1216.8,1398.5,1208.8z"/>
	<g id="Group_361">
		<path id="Rectangle_320" class="st2" d="M1395.2,1030.2h137.5c1.2,0,2.1,1,2.1,2.1c0,0,0,0,0,0v92.5c0,1.2-1,2.1-2.1,2.1h-137.5
			c-1.2,0-2.1-1-2.1-2.1l0,0v-92.5C1393,1031.2,1394,1030.2,1395.2,1030.2z"/>
		<g id="Group_360">
			<path id="Rectangle_321" class="st3" d="M1421.4,1048.9h83c3.5,0,6.3,2.8,6.3,6.3v47.5c0,3.5-2.8,6.3-6.3,6.3h-83
				c-3.5,0-6.3-2.8-6.3-6.3v-47.5C1415,1051.7,1417.9,1048.9,1421.4,1048.9z"/>
			<g id="Group_359">
				<path id="Path_93" class="st4" d="M1500.8,1054.3h-74.5l36.6,34.6L1500.8,1054.3z"/>
				<path id="Path_94" class="st4" d="M1462.8,1098l-42.8-40.4v46.2h85.7v-44.9L1462.8,1098z"/>
			</g>
		</g>
	</g>
	<path id="Path_95" class="st5" d="M1354.1,1570.2c0,7-66.9,12.6-149.4,12.6c-82.5,0-149.4-5.7-149.4-12.6c0-7,66.9-12.6,149.4-12.6
		C1287.2,1557.6,1354.1,1563.2,1354.1,1570.2z"/>
	<g id="Group_370">
		<path id="Path_96" class="st6" d="M1268.9,1544.8l4.7,19.3l14.2-4.1c0,0-0.9-7.6-2.7-19.6L1268.9,1544.8z"/>
		<path id="Path_97" class="st6" d="M1181.6,1539.9l0,19.8l14.8-0.7c0,0,0.9-7.6,2-19.7L1181.6,1539.9z"/>
		<path id="Path_98" class="st7" d="M1250.4,1075c0,0,10.6,4.3,15.8,9.7s7.5,16,6.5,24.5s-3.2,10-3.2,10s4.9,11.8,3.4,21.9
			s-12.5,19.8-19.7,21.2c0,0,10-12,8.7-18.2c0,0-7.2,10.3-14.4,14.3c-7.2,4-42.1,39-64.7,14c0,0,18.4-8.3,12.4-24.9
			s10.6-31.6,10.6-31.6s-13,7.2-19.7-2.5s4.9-17.2,5.4-16.6s-4.6,9.4,1.5,11.7c6,2.3,7.4-7,16.9-16.9
			C1219.3,1081.6,1245.9,1070.3,1250.4,1075z"/>
		<path id="Path_99" class="st6" d="M1247.5,1162.7l5.6-37l-19-1.4l-5.6,30.5C1232.6,1158.8,1240,1166.6,1247.5,1162.7z"/>
		<path id="Path_100" class="st8" d="M1250.7,1141.9l2.5-16.2l-19-1.4l-2.2,12c0.2,0.3,0.5,0.6,0.7,0.9
			C1236.1,1141.1,1244,1147.4,1250.7,1141.9z"/>
		<path id="Path_101" class="st6" d="M1255.9,1083.7c0,0,7.8,2.8,7.8,13.4c0,0-0.8,24.3-10.5,36.4c-7.1,8.9-16.6,2.2-20.5-1.8
			c-5.8-5.8-4.1-13.6-4.1-24.2C1228.5,1096.9,1245.2,1076.2,1255.9,1083.7z"/>
		<path id="Path_102" class="st9" d="M1243.1,1109.4c-0.1,1.1-1.1,1.9-2.2,1.8c-1.1-0.1-1.9-1.1-1.8-2.2c0.1-1,1-1.9,2-1.9
			C1242.2,1107.2,1243.2,1108.2,1243.1,1109.4z"/>
		<path id="Path_103" class="st9" d="M1259.4,1111.4c-0.1,1.1-1.1,1.9-2.2,1.8c-1.1-0.1-1.9-1.1-1.8-2.2c0.1-1,1-1.9,2-1.9
			C1258.6,1109.2,1259.5,1110.2,1259.4,1111.4z"/>
		<path id="Path_104" class="st9" d="M1235.4,1108.7c0,0,3.8-2.5,6.7-1.8c2.8,0.7,3.2,2.4,3.2,2.4c-1.6-1.1-3.5-1.6-5.4-1.3
			C1236.8,1108.6,1235.4,1108.7,1235.4,1108.7z"/>
		<path id="Path_105" class="st9" d="M1263.6,1112.6c0,0-3.1-3.4-6-3.4c-2.9,0-3.7,1.5-3.7,1.5c1.8-0.7,3.8-0.6,5.6,0.1
			C1262.3,1112.1,1263.6,1112.6,1263.6,1112.6z"/>
		<path id="Path_106" class="st9" d="M1251.4,1114c0.4,2.1,0.9,4.1,1.7,6.1c-1.1,0.7-2.3,1.2-3.5,1.4c1.6,0.3,3.2-0.2,4.4-1.2
			C1253.2,1118.2,1252.3,1116.1,1251.4,1114z"/>
		<path id="Path_107" class="st8" d="M1243.4,1116.9c0,1.7-2.2,3.1-5,3.1c-2.7,0-5-1.4-5-3.1c0-1.7,2.2-3.1,5-3.1
			C1241.2,1113.8,1243.4,1115.2,1243.4,1116.9z"/>
		<path id="Path_108" class="st8" d="M1260.1,1115.2c-1.8-0.2-3.5,1.1-3.8,2.9c0.2,1.6,1.5,2.8,3.1,2.9c0.6-1.9,1.2-3.8,1.6-5.7
			C1260.8,1115.2,1260.4,1115.2,1260.1,1115.2z"/>
		<path id="Path_109" class="st9" d="M1261.6,1081.5c0,0,1.4,14.6-11.5,15.6c-7.6,0.5-14.9,3-21.1,7.4l-5.7,17.2
			c0,0-2.8-13.3-2.4-23c0.4-9.7,14.3-23.3,23.5-24.5C1253.6,1072.8,1261.6,1081.5,1261.6,1081.5z"/>
		<path id="Path_110" class="st6" d="M1230.7,1106.7c0,0-0.9-3.2-3.7-2.5c-2.8,0.7-1.4,9,0,10.5
			C1228.5,1116.1,1233.5,1115,1230.7,1106.7z"/>
		<path id="Path_111" class="st8" d="M1230,1108.3c0,0-1.7-3.9-3-2.6c-1.3,1.3,0.3,7.1,1.4,7.1
			C1229.6,1112.8,1230,1108.3,1230,1108.3z"/>
		<path id="Path_112" class="st9" d="M1242.5,1126.2c-0.3-0.2-0.2-0.3-0.5,0c-0.7,1,0.5,4.1,2.6,4.8c2.7,0.9,6.5-1,6.5-2.6
			C1251.1,1127.8,1247.6,1129.8,1242.5,1126.2z"/>
		<path id="Path_113" class="st9" d="M1236.8,1103.7c2.1-0.8,4.4-1.4,6.6-1.7c1.9,0,4.5,2.2,4,3.5c-0.5,1.3-2.8-2.1-4.3-2.1
			C1241.5,1103.3,1236.8,1103.7,1236.8,1103.7z"/>
		<path id="Path_114" class="st9" d="M1261.6,1107.8c0,0-1.1-2.8-2.9-3.3c-1.8-0.6-4.9,0.8-4.8,2.1s3.3-1.2,4.8-0.8
			C1259.8,1106.3,1260.8,1107,1261.6,1107.8z"/>
		<path id="Path_115" class="st6" d="M1205.7,1154.9c-9-11.9-30-43.1-31.8-79.7c-2.7-53.4,5.4-70.4,5.4-70.4s6-4.7,8.2-8.2
			c2.2-3.5,6.7-6.9,4.6-8.2s-5.2,2.8-6.1,4.3c-0.3,0.4-0.8,0.7-1.3,0.5c-1.3-0.3-2-1.6-1.7-2.9c0,0,0-0.1,0-0.1
			c0.8-2.4,2-4.6,3.4-6.7c4.4-6.9,7.7-13.5,5.6-13c-2.2,0.5-9.2,13-10.8,15.5c-1.6,2.5,4-11.4,6.1-17.3c2.1-5.9-1.5-4.3-2.5-1
			c-0.9,3.3-6.5,17.2-7.4,16.6c-0.9-0.6,4.8-16.6,2.6-18s-1.7,2.2-2.5,4.8c-0.8,2.6-1.5,11.6-3.8,12.1c0,0-0.9-12.3-1.9-11.1
			c-0.5,0.6-2,13.7-2.1,19.2c-0.2,13-18,82.4-13.8,100.7c4.1,17.8,9.5,68.9,23.8,79.2C1196.5,1171.8,1197.9,1167.3,1205.7,1154.9z"
			/>
		<path id="Path_116" class="st8" d="M1174.1,1078.3c-6.7,0.6-13.1,2.7-18.8,6.3c-0.1,2.5,0.2,4.9,0.6,7.4
			c1.1,4.8,2.3,12.2,3.8,20.4l19.1-9.6C1176.4,1094.9,1174.8,1086.6,1174.1,1078.3z"/>
		<path id="Path_117" class="st6" d="M1273.2,1183.4c12.2,8.5,44.3,28.2,81,28.5c53.5,0.5,70.1-8.3,70.1-8.3s4.5-6.2,7.9-8.6
			c3.4-2.3,6.6-7,8-4.9c1.4,2.1-2.6,5.3-4.1,6.3c-0.4,0.3-0.6,0.8-0.4,1.3c0.4,1.2,1.7,2,2.9,1.6c0,0,0.1,0,0.1,0
			c2.3-0.9,4.5-2.2,6.6-3.7c6.8-4.7,13.2-8.3,12.8-6.1c-0.4,2.2-12.6,9.7-15,11.4c-2.4,1.7,11.2-4.5,17-6.8s4.4,1.4,1.1,2.4
			c-3.3,1.1-16.9,7.2-16.3,8.1c0.6,0.9,16.4-5.5,17.9-3.3s-2.2,1.8-4.7,2.7c-2.5,0.9-11.5,1.9-11.9,4.3c0,0,12.3,0.4,11.2,1.4
			c-0.6,0.5-13.6,2.6-19.1,2.9c-13,0.8-81.6,21.4-100,18c-18-3.4-69.3-6.6-80.1-20.5C1256.7,1193.3,1261.1,1191.6,1273.2,1183.4z"/>
		<path id="Path_118" class="st8" d="M1330.6,1209.1c-8.9-2-17.5-4.7-25.9-8.3c-1.7,4.7-0.9,15.7,1.5,25.2c7.4,1.1,14.6,2,20.7,2.8
			C1329.3,1222.5,1330.5,1215.9,1330.6,1209.1z"/>
		<path id="Path_119" class="st10" d="M1182.3,1256.4c0,0-20.4,46.1-20.4,60.5c0,14.4,10.7,224.7,10.7,224.7l33.5,1.4
			c0,0-1.4-196.6,3.6-201.6c5-5,10.1-4.3,10.1-4.3l43.1,209l31.2-2.4c0,0-16.7-199.5-25.3-221.1c-8.6-21.6-27.4-66.2-27.4-66.2
			L1182.3,1256.4z"/>
		<g id="Group_362">
			<path id="Path_120" class="st11" d="M1212.9,1282c-11.8-0.2-23.3-3.6-33.2-9.9l1.6-2.3c0.3,0.2,25.9,17.7,53.5,4.3l1.2,2.6
				C1228.8,1280.2,1220.9,1282,1212.9,1282z"/>
		</g>
		<path id="Path_121" class="st11" d="M1212.5,1272c0,1.9-1.5,3.4-3.4,3.4c-1.9,0-3.4-1.5-3.4-3.4c0-1.9,1.5-3.4,3.4-3.4
			C1211,1268.6,1212.5,1270.1,1212.5,1272C1212.5,1272,1212.5,1272,1212.5,1272z"/>
		<g id="Group_363">
			
				<rect id="Rectangle_322" x="1191.3" y="1268.2" transform="matrix(9.999875e-02 -0.995 0.995 9.999875e-02 -182.5209 2337.4722)" class="st11" width="19" height="2.9"/>
		</g>
		<path id="Path_122" class="st12" d="M1145.1,1104.9c0,0,10.7,67.9,19.9,67.9c0,0-16.7,66.1,17.3,83.5c34,17.5,71,1.6,82.6-10.1
			c11.6-11.6,23.2-11.9,37.3-6c14.1,5.9,23.8-24.2,23.8-39.3c0-15.2-54.7-33.8-82.3-45.3s-37.1-10.4-47.3-26.1s-10.3-44.3-21.1-40
			S1145.1,1104.9,1145.1,1104.9z"/>
		<path id="Path_123" class="st6" d="M1243.7,1155.7c-20.2-8.4-30.8-10.1-39-16.6c-1.3,12.7-2,37.5,10.9,46.2
			c14.9,10.1,49.3-2.4,63.7-15.3C1263.4,1163,1256,1160.9,1243.7,1155.7z"/>
		<path id="Path_124" class="st9" d="M1256.4,1086.7c0,0-23.3,13.9-25.6,20c-2.3,6.1-10.4,14.8-5,34.4s-15,28-22.4,21.8
			c-7.4-6.2-5.9-19.2,0-18.2c0,0,2.8,6,7.4,1.4c4.6-4.6,0.6-21.3-0.2-32.1S1236.8,1060,1256.4,1086.7z"/>
		<g id="Group_367">
			<path id="Path_125" class="st13" d="M1196.7,1554.9c0,0-0.9,9.3-1.5,15.6s1.7,11.6-6.2,12.1c-7.9,0.5-16-2.5-16.4-6.6
				c-0.4-4.2,8.2-13,8.6-17.1c0.4-4.1,2.8-5.5,3.9-4.1C1186.3,1556.2,1196.7,1554.9,1196.7,1554.9z"/>
			<path id="Path_126" class="st14" d="M1194.3,1580.2c-1.5,1.4-3.4,1.4-5.5,1.3c-4.5-0.2-14.4-1.4-16.1-5.5c-0.1,1.1,0.2,2.3,1,3.2
				C1178.6,1585.5,1193.1,1585.3,1194.3,1580.2z"/>
			<path id="Path_127" class="st14" d="M1181.7,1562.9c-0.2,2.7,1.8,5.1,4.6,5.3c1.9,0.1,3.7-0.8,4.6-2.4c0-0.1,0.1-0.1,0.1-0.2
				c2.1-3.5,3.9-7.2,5.4-11c0.9-1.8,2.2-4.4-1.7-6.6s-9.9-2.6-10-0.8C1183.4,1552.4,1182.3,1557.6,1181.7,1562.9z"/>
			<path id="Path_128" class="st4" d="M1194.8,1548c3.9,2.2,2.6,4.8,1.7,6.6c-1.6,3.8-3.4,7.4-5.4,11c0,0.1-0.1,0.1-0.1,0.2
				c-0.2,0.4-0.5,0.7-0.8,1.1c0.1-0.1,0.1-0.2,0.2-0.3l0.1-0.2c2.1-3.5,3.9-7.2,5.4-11c0.9-1.8,2.2-4.4-1.7-6.6
				c-3.2-1.8-7.8-2.4-9.4-1.5C1185,1545.4,1190.9,1545.8,1194.8,1548z"/>
			<path id="Path_129" class="st15" d="M1190,1567c0,0,0.8-11.5,2.5-11.8c1.4-0.2,2.8-0.3,4.3-0.3c0,0-1.9,11.5-4.1,13.2
				C1190.5,1569.9,1190,1567,1190,1567z"/>
			<g id="Group_364">
				<path id="Path_130" class="st4" d="M1181.5,1557.8c0,0.1,0,0.3,0.2,0.4c4.3,3.9,11.1,1.1,11.4,0.9c0.2-0.1,0.3-0.4,0.3-0.6
					c0,0,0,0,0,0c-0.1-0.2-0.4-0.3-0.6-0.2c-0.1,0-6.5,2.7-10.4-0.8c-0.2-0.2-0.5-0.2-0.7,0
					C1181.5,1557.6,1181.5,1557.7,1181.5,1557.8z"/>
			</g>
			<g id="Group_365">
				<path id="Path_131" class="st4" d="M1180.7,1562.3c0,0.1,0,0.3,0.1,0.4c2.7,2.5,10.7,0.9,11,0.8c0.3,0,0.5-0.2,0.4-0.5
					c0-0.3-0.2-0.5-0.5-0.4c0,0-0.1,0-0.1,0c-2.2,0.5-8.2,1.3-10.2-0.5c-0.2-0.2-0.5-0.2-0.7,0
					C1180.8,1562.1,1180.8,1562.2,1180.7,1562.3z"/>
			</g>
			<g id="Group_366">
				<path id="Path_132" class="st4" d="M1180.1,1565.6c0,0.1,0,0.2,0.1,0.3c2.1,2.5,10.6,1.4,11.5,1.2c0.3,0,0.5-0.2,0.5-0.5
					c0-0.3-0.2-0.5-0.5-0.5c-0.1,0-0.1,0-0.1,0c-2.5,0.4-9.2,0.9-10.7-0.9c-0.2-0.2-0.5-0.2-0.7,0
					C1180.2,1565.4,1180.1,1565.5,1180.1,1565.6L1180.1,1565.6z"/>
			</g>
			<path id="Path_133" class="st15" d="M1191.4,1571.7c0,0,1.4,6.1,0.2,7.2c-1.3,1-16.1-0.6-15.8-3.2s4.1-7.3,5.4-7.6
				C1182.6,1567.8,1191.4,1571.7,1191.4,1571.7z"/>
		</g>
		<g id="Group_369">
			<path id="Path_134" class="st15" d="M1291.2,1547c0,0-8.2,1.3-8.4,6.8s6.6,12.8,6.6,12.8l6.3-4.3c-1.9-2.3-3.1-5.1-3.4-8.1
				C1292.1,1551.8,1291.7,1549.4,1291.2,1547z"/>
			<path id="Path_135" class="st16" d="M1271.5,1577.4l14,0.3c5.8,0.1,14.9,1,17.8,1.1c2.9,0.1,13.5-6.5,12.8-8.7
				c-0.6-2.2-10.1-1.9-15-4.5c-4.9-2.6-13.3-8.8-15-9.5c-2.7-1-9.8,1.5-11.5,3.1C1272.9,1560.8,1270.1,1575.9,1271.5,1577.4z"/>
			<path id="Path_136" class="st14" d="M1273.6,1573.6c23.1-3.1,16.3,3.7,38.9-2c-5.5,2.1-13.6,4.1-19.4,2.8
				c-3.2-0.6-6.4-0.9-9.7-0.9C1280.2,1573.5,1276.9,1573.6,1273.6,1573.6z"/>
			<g id="Group_368">
				<path id="Path_137" class="st4" d="M1289.2,1567.8c0.3,0.4,0.9,0.4,1.2,0.1c0,0,0,0,0,0c2.2-1.8,4.6-3.3,7.1-4.7
					c-0.5-0.4-1.1-0.8-1.6-1.2c-2.3,1.3-4.5,2.8-6.6,4.5C1289,1566.9,1288.9,1567.4,1289.2,1567.8z"/>
				<path id="Path_138" class="st4" d="M1288.2,1564.1c0.4,0.2,1,0.1,1.2-0.3c0,0,0,0,0,0c1.4-1.9,3-3.7,4.6-5.4
					c-0.1-0.6-0.4-1.2-0.9-1.6c-1.9,1.9-3.6,4-5.2,6.1C1287.7,1563.3,1287.8,1563.9,1288.2,1564.1z"/>
			</g>
		</g>
		<path id="Path_139" class="st11" d="M1169.2,1533.1l38.7,1v8.8l-38.7-0.6V1533.1z"/>
		<path id="Path_140" class="st17" d="M1219.7,1337l43.1,209l15.2-1.2l-46.8-222.4L1219.7,1337z"/>
		<path id="Path_141" class="st11" d="M1258.4,1538.9l39.1-2.5v7.3l-37.3,3.3L1258.4,1538.9z"/>
	</g>
	<path id="Path_142" class="st18" d="M1149.7,1298c-114.1-4.1-219.4-28.1-219.3-68.5l-0.2,115.7c-0.1,39,104.5,64.5,219.6,68.8
		L1149.7,1298z"/>
	<g id="Group_371">
		<path id="Path_143" class="st18" d="M925.8,1375.1v14.3c-0.1,40.4,105.2,64.5,219.3,68.5v-14.3
			C1031,1439.6,925.7,1415.5,925.8,1375.1z"/>
		<path id="Path_144" class="st18" d="M925.6,1491.9l0,13.3c0,0.4,0,0.7,0,1.1l0-13.9C925.6,1492.2,925.6,1492.1,925.6,1491.9z"/>
		<path id="Path_145" class="st18" d="M933.4,1427.7l0,9.7c-0.1,39,104.5,64.5,219.6,68.8v-10.7
			C1038.8,1491.3,934.9,1466.1,933.4,1427.7z"/>
	</g>
	<path id="Path_146" class="st19" d="M940.7,1263.8l-0.2,81.4c0,14.7,29.3,31.2,81,43v-94.3C989.9,1287.3,959.8,1277.7,940.7,1263.8
		z"/>
	<path id="Path_147" class="st19" d="M1030.3,1295.6v10.8c42.3,8.1,86,11.2,109.1,12.3v-10.8
		C1116.3,1306.8,1072.6,1303.7,1030.3,1295.6z"/>
	<path id="Path_148" class="st19" d="M1030.3,1328.2c42.3,8.1,86,11.2,109.1,12.3v-10.8c-23.1-1.1-66.8-4.2-109.1-12.3V1328.2z"/>
	<path id="Path_149" class="st19" d="M1030.3,1349.9c42.3,8.1,86,11.2,109.1,12.3v-10.8c-23.1-1.1-66.8-4.2-109.1-12.3V1349.9z"/>
	<path id="Path_150" class="st19" d="M1030.3,1371.6c42.3,8.1,86,11.2,109.1,12.3V1373c-23.1-1.1-66.8-4.2-109.1-12.3V1371.6z"/>
	<path id="Path_151" class="st19" d="M1030.3,1390.1c30,6.3,66.7,11,109.1,13.1v-8.4c-23.1-1.1-66.8-4.2-109.1-12.3V1390.1z"/>
	<path id="Path_152" class="st18" d="M1429.2,1230.2c0,11.2-10.4,19.8-9.7,19.1c-13.4,12.9-36.4,23.2-65.4,30.9v115.2
		c9.9-2.7,19.3-5.8,28-9.1c17.9-6.9,46.4-20.8,46.9-39.9C1429,1346.3,1428.9,1367.7,1429.2,1230.2z"/>
	<path id="Path_153" class="st3" d="M1364.5,1288.2c23.2-6.8,41.3-15.1,54.3-24.7c0,0-0.1,78.6-0.2,82.7c-0.3,9.3-15.7,21-40.3,30.4
		c-4.4,1.7-9,3.3-13.9,4.9L1364.5,1288.2z"/>
	<path id="Path_154" class="st2" d="M1050.5,928.6c51.6-0.3,93.6,15.2,93.7,34.6c0.1,9.7-10.4,18.5-27.3,24.9l8.9,33.6l-32-27.1
		c-14.2,2.7-28.5,4.1-43,4.1c-51.6,0.3-93.6-15.2-93.7-34.6S998.8,928.9,1050.5,928.6z"/>
	<path id="Path_155" class="st20" d="M1423.3,919.1h-138.4c-6.7,0-12.1,5.4-12.1,12.1v41.7c0,6.7,5.4,12.1,12.1,12.1c0,0,0,0,0,0
		h45.3l-22.8,65.4l40.1-65.5h75.8c6.7,0,12.1-5.4,12.1-12.1v-41.7C1435.4,924.5,1430,919.1,1423.3,919.1z"/>
	<path id="Path_156" class="st20" d="M818,1051.3h138.4c6.7,0,12.1,5.4,12.1,12.1v41.7c0,6.7-5.4,12.1-12.1,12.1h-45.3l22.8,65.4
		l-40.1-65.4H818c-6.7,0-12.1-5.4-12.1-12.1v-41.7C805.9,1056.7,811.3,1051.3,818,1051.3z"/>
	<path id="Path_157" class="st20" d="M1507.8,1490.7l-102.1-3.9c-4.9-0.2-8.8-4.3-8.6-9.3l1.2-30.8c0.2-4.9,4.3-8.8,9.3-8.6
		c0,0,0,0,0,0l33.4,1.3l-15-48.9l27.8,49.4l55.9,2.1c4.9,0.2,8.8,4.3,8.6,9.3c0,0,0,0,0,0l-1.2,30.8
		C1516.9,1487,1512.7,1490.8,1507.8,1490.7z"/>
	<path id="Path_158" class="st18" d="M1279.3,1200.1c-4.9,17.1-16.9,33.2-32.5,40c-18.6,9.2-41.7,2.6-48,1.7
		c-0.4-0.2-24.9-6.5-30-24c7.8,19.3,37.5,26,60.5,24.4C1253.6,1239.9,1271.3,1221.6,1279.3,1200.1z"/>
	<g id="Group_374">
		<g id="Group_372">
			<path id="Path_159" class="st21" d="M1284.9,1093.9c-0.5,0-1-0.1-1.5-0.4c-2.2-1.4-4.5-2.8-6.8-4.2c-1.3-0.8-1.7-2.4-0.9-3.7
				c0.8-1.3,2.4-1.7,3.7-0.9c2.3,1.4,4.7,2.9,6.9,4.3c1.2,0.8,1.6,2.5,0.8,3.7C1286.6,1093.4,1285.8,1093.9,1284.9,1093.9
				L1284.9,1093.9z"/>
		</g>
		<g id="Group_373">
			<path id="Path_160" class="st21" d="M926.9,1485.3c-0.4,0-0.9-0.1-1.3-0.3c-5.8-3.1-10.5-5.7-14-7.7c-1.3-0.7-1.8-2.4-1-3.7
				c0.7-1.3,2.4-1.8,3.7-1c3.5,2,8.2,4.5,13.9,7.7c1.3,0.7,1.8,2.3,1.1,3.7C928.8,1484.8,927.9,1485.4,926.9,1485.3L926.9,1485.3z
				 M893.8,1464.9c-0.6,0-1.1-0.2-1.6-0.5c-4.3-3.2-8.6-6.5-12.6-9.9c-1.1-0.9-1.3-2.6-0.4-3.8c0.9-1.1,2.6-1.3,3.8-0.4
				c4,3.3,8.2,6.5,12.4,9.7c1.2,0.9,1.4,2.6,0.6,3.8C895.5,1464.5,894.7,1464.9,893.8,1464.9L893.8,1464.9z M864.1,1439.9
				c-0.7,0-1.4-0.3-1.9-0.8c-3.9-3.7-7.7-7.6-11.3-11.4c-1-1.1-0.9-2.8,0.2-3.8c1.1-1,2.8-0.9,3.8,0.1c3.5,3.8,7.2,7.6,11,11.2
				c1.1,1,1.1,2.7,0.1,3.8C865.5,1439.6,864.8,1439.9,864.1,1439.9L864.1,1439.9z M838.1,1411c-0.8,0-1.6-0.4-2.1-1
				c-3.3-4.3-6.5-8.6-9.4-13c-0.9-1.2-0.6-2.9,0.6-3.8c1.2-0.9,2.9-0.6,3.8,0.6c0,0.1,0.1,0.1,0.1,0.2c2.9,4.3,6,8.6,9.2,12.7
				c0.9,1.2,0.7,2.9-0.5,3.8C839.3,1410.8,838.7,1411,838.1,1411L838.1,1411z M817,1378.5c-1,0-1.9-0.5-2.4-1.4
				c-2.5-4.7-4.9-9.6-7.1-14.5c-0.6-1.4,0.1-3,1.4-3.5c1.3-0.6,2.9,0,3.5,1.3c2.1,4.8,4.4,9.5,6.9,14.1c0.7,1.3,0.2,2.9-1.1,3.6
				C817.8,1378.4,817.4,1378.5,817,1378.5L817,1378.5z M801.8,1342.7c-1.2,0-2.2-0.8-2.6-1.9c-1.6-5.1-3.1-10.3-4.4-15.5
				c-0.3-1.4,0.5-2.9,2-3.2c1.4-0.3,2.9,0.5,3.2,2c1.2,5.1,2.7,10.2,4.3,15.1c0.5,1.4-0.3,2.9-1.7,3.4
				C802.3,1342.7,802,1342.7,801.8,1342.7L801.8,1342.7z M793.2,1304.9c-1.4,0-2.5-1-2.7-2.3c-0.2-1.2-0.3-2.4-0.5-3.7
				c-0.5-4.1-0.8-8.2-1.1-12.4c0-1.5,1.2-2.7,2.7-2.7c1.4,0,2.6,1,2.7,2.4c0.2,4,0.6,8.1,1.1,12.1c0.1,1.2,0.3,2.4,0.4,3.6
				c0.2,1.5-0.8,2.8-2.3,3c0,0,0,0,0,0C793.5,1304.9,793.4,1304.9,793.2,1304.9L793.2,1304.9z M791.5,1266.1h-0.1
				c-1.5-0.1-2.6-1.3-2.6-2.8c0.2-5.3,0.6-10.7,1.2-16c0.2-1.5,1.5-2.5,3-2.4c1.5,0.2,2.5,1.5,2.4,3c-0.6,5.2-0.9,10.5-1.2,15.7
				C794.1,1264.9,793,1266.1,791.5,1266.1L791.5,1266.1z M796.3,1227.5c-1.5,0-2.7-1.2-2.7-2.7c0-0.2,0-0.4,0.1-0.6
				c1.1-5.2,2.3-10.5,3.8-15.6c0.4-1.4,1.9-2.3,3.3-1.9c1.4,0.4,2.3,1.9,1.9,3.3l0,0c-1.4,5.1-2.6,10.2-3.7,15.3
				C798.6,1226.6,797.5,1227.5,796.3,1227.5L796.3,1227.5z M807.1,1190.2c-1.5,0-2.7-1.2-2.7-2.7c0-0.3,0.1-0.7,0.2-1
				c1.9-5,4-10,6.2-14.8c0.6-1.4,2.1-2,3.5-1.5s2,2.1,1.5,3.5c0,0.1-0.1,0.1-0.1,0.2c-2.2,4.8-4.2,9.6-6.1,14.5
				C809.3,1189.5,808.3,1190.2,807.1,1190.2L807.1,1190.2z M823.7,1155.1c-1.5,0-2.7-1.2-2.7-2.7c0-0.5,0.1-0.9,0.4-1.4
				c2.6-4.6,5.5-9.2,8.4-13.7c0.8-1.2,2.5-1.6,3.7-0.7c1.2,0.8,1.6,2.5,0.8,3.7c-2.9,4.4-5.6,8.9-8.2,13.4
				C825.6,1154.6,824.7,1155.1,823.7,1155.1L823.7,1155.1z M845.5,1123c-1.5,0-2.7-1.2-2.7-2.7c0-0.6,0.2-1.2,0.6-1.7
				c3.3-4.2,6.8-8.3,10.4-12.3c1-1.1,2.7-1.2,3.8-0.2c1.1,1,1.2,2.7,0.2,3.8c-3.5,3.9-6.9,7.9-10.2,12
				C847.1,1122.6,846.3,1123,845.5,1123L845.5,1123z M872,1094.5c-1.5,0-2.7-1.2-2.7-2.7c0-0.8,0.3-1.5,0.9-2
				c4-3.6,8.1-7.1,12.4-10.3c1.2-0.9,2.9-0.7,3.8,0.5c0.9,1.2,0.7,2.9-0.5,3.8l0,0c-4.1,3.2-8.2,6.5-12,10
				C873.3,1094.3,872.7,1094.5,872,1094.5L872,1094.5z M1257.9,1078.6c-0.4,0-0.8-0.1-1.2-0.3c-4.6-2.3-9.4-4.5-14.3-6.7
				c-1.4-0.6-1.9-2.2-1.3-3.6c0.6-1.3,2.1-1.9,3.5-1.4c4.9,2.1,9.8,4.4,14.5,6.8c1.3,0.7,1.9,2.3,1.2,3.6
				C1259.9,1078,1258.9,1078.6,1257.9,1078.6L1257.9,1078.6z M903.3,1071.6c-1.5,0-2.7-1.2-2.7-2.7c0-1,0.5-1.8,1.3-2.3
				c4.6-2.7,9.3-5.2,14.2-7.6c1.3-0.6,2.9-0.1,3.6,1.2c0.6,1.3,0.1,2.9-1.2,3.6c-4.7,2.3-9.4,4.8-13.8,7.4
				C904.2,1071.4,903.8,1071.6,903.3,1071.6z M1222.1,1063.4c-0.3,0-0.6-0.1-0.9-0.2c-4.9-1.7-9.9-3.4-15-4.9
				c-1.4-0.4-2.2-1.9-1.8-3.4c0.4-1.4,1.9-2.2,3.4-1.8l0,0c5.1,1.6,10.2,3.3,15.2,5c1.4,0.5,2.1,2,1.6,3.4
				C1224.3,1062.7,1223.2,1063.4,1222.1,1063.4L1222.1,1063.4z M938.5,1055.2c-1.5,0-2.7-1.2-2.7-2.7c0-1.1,0.7-2.2,1.8-2.6
				c4.9-1.8,10.1-3.4,15.3-4.9c1.4-0.4,2.9,0.4,3.3,1.9c0.4,1.4-0.4,2.9-1.9,3.3l0,0c-5.1,1.5-10.1,3.1-15,4.8
				C939.1,1055.1,938.8,1055.2,938.5,1055.2L938.5,1055.2z M1184.8,1052.4c-0.2,0-0.4,0-0.6-0.1c-5-1.2-10.2-2.4-15.4-3.4
				c-1.5-0.3-2.4-1.7-2.1-3.2c0.3-1.5,1.7-2.4,3.2-2.1c5.3,1.1,10.5,2.2,15.6,3.5c1.4,0.3,2.4,1.7,2.1,3.2
				C1187.3,1051.5,1186.1,1052.4,1184.8,1052.4L1184.8,1052.4z M975.9,1045c-1.5,0-2.7-1.2-2.7-2.7c0-1.3,0.9-2.4,2.2-2.6
				c5.1-1,10.4-1.9,15.8-2.7c1.5-0.2,2.8,0.9,3,2.4c0.2,1.4-0.8,2.7-2.2,3c-5.3,0.8-10.5,1.6-15.6,2.6
				C976.3,1045,976.1,1045,975.9,1045L975.9,1045z M1146.7,1044.9c-0.1,0-0.3,0-0.4,0c-5.1-0.8-10.4-1.5-15.7-2.2
				c-1.5-0.2-2.5-1.5-2.3-3c0.2-1.5,1.5-2.5,3-2.3c5.3,0.6,10.6,1.4,15.8,2.2c1.5,0.2,2.5,1.6,2.3,3.1
				C1149.2,1043.9,1148,1044.9,1146.7,1044.9L1146.7,1044.9z M1108.1,1040.4c-0.1,0-0.1,0-0.2,0c-5.2-0.4-10.5-0.8-15.8-1.1
				c-1.5-0.1-2.6-1.4-2.5-2.8c0.1-1.5,1.4-2.6,2.8-2.5c5.4,0.3,10.7,0.7,15.9,1.1c1.5,0.2,2.6,1.5,2.4,3
				C1110.5,1039.4,1109.4,1040.4,1108.1,1040.4L1108.1,1040.4z M1014.5,1039.8c-1.5,0-2.7-1.2-2.7-2.7c0-1.4,1.1-2.6,2.5-2.7
				c5.2-0.4,10.5-0.7,16-1c1.5,0,2.7,1.1,2.8,2.6c0,1.4-1.1,2.7-2.5,2.8c-5.4,0.2-10.7,0.6-15.8,1
				C1014.6,1039.8,1014.5,1039.8,1014.5,1039.8L1014.5,1039.8z M1069.2,1038.5L1069.2,1038.5c-5.2-0.1-10.3-0.2-15-0.2h-0.9
				c-1.5,0-2.7-1.2-2.7-2.7c0-1.5,1.2-2.7,2.7-2.7h0.9c4.8,0,9.9,0.1,15.1,0.2c1.5,0,2.7,1.2,2.7,2.7
				C1071.9,1037.3,1070.7,1038.5,1069.2,1038.5z"/>
		</g>
	</g>
	<g id="Group_375">
		<path id="Path_161" class="st22" d="M1363.1,1117.2l-79.3-48.1l-19.4,19.8L1363.1,1117.2z"/>
		<path id="Path_162" class="st21" d="M1283.8,1128.4l1.1-37.2l78.2,26.1L1283.8,1128.4z"/>
		<path id="Path_163" class="st21" d="M1283.7,1038.4l79.4,78.8l-79.3-48.1L1283.7,1038.4z"/>
		<path id="Path_164" class="st23" d="M1264.3,1089l20.5,2.2l-0.2,5.4L1264.3,1089z"/>
	</g>
</g>
</svg>
