<?xml version="1.0" encoding="utf-8"?>
<!-- Generator: Adobe Illustrator 23.1.0, SVG Export Plug-In . SVG Version: 6.00 Build 0)  -->
<svg version="1.1" id="Слой_1" xmlns="http://www.w3.org/2000/svg" xmlns:xlink="http://www.w3.org/1999/xlink" x="0px" y="0px"
	 viewBox="0 0 850.4 850.4" style="enable-background:new 0 0 850.4 850.4;" xml:space="preserve">
<style type="text/css">
	.st0{fill:#FFFFFF;}
</style>
<g transform="matrix(1, 0, 0, 1, 0, 0)">
	<path id="Union_30-2" class="st0" d="M386.9,513.3c-13.3,0-24-10.7-24-24v-14.9c-2.4,0.4-4.9,0.7-7.4,1.2
		c-69.3,11.9-103.9-2.4-111.8-6.2s-17.3-7-31.9-27.5c39.5,21,108.7,7.1,142.2-9.7c2.9-1.4,5.9-2.6,8.9-3.6v-2.2
		c0-13.3,10.7-24,24-24h306c13.3,0,24,10.7,24,24v63c0,13.3-10.7,24-24,24H386.9z"/>
</g>
</svg>
