<?xml version="1.0" encoding="utf-8"?>
<!-- Generator: Adobe Illustrator 23.1.0, SVG Export Plug-In . SVG Version: 6.00 Build 0)  -->
<svg version="1.1" id="Слой_1" xmlns="http://www.w3.org/2000/svg" xmlns:xlink="http://www.w3.org/1999/xlink" x="0px" y="0px"
	 viewBox="0 0 850.4 850.4" style="enable-background:new 0 0 850.4 850.4;" xml:space="preserve">
<style type="text/css">
	.st0{fill:#FFFFFF;}
</style>
<g transform="matrix(1, 0, 0, 1, 0, 0)">
	<path id="Union_28-2" class="st0" d="M335.1,528.3c-13.3,0-24-10.7-24-24v-2c-6.6-0.3-14.5,1.1-23.4,5.7
		c-28.4,14.7-45.8,2-49.9-1.4s-8.6-6.1-18.3-25.8c20.6,19.1,48.7,2.4,60.6-15.5c7-10.5,20.7-12.3,30.9-12v-42c0-13.3,10.7-24,24-24
		h350c13.3,0,24,10.7,24,24v93c0,13.3-10.7,24-24,24H335.1z"/>
</g>
</svg>
