<?xml version="1.0" encoding="utf-8"?>
<!-- Generator: Adobe Illustrator 23.1.0, SVG Export Plug-In . SVG Version: 6.00 Build 0)  -->
<svg version="1.1" id="Слой_1" xmlns="http://www.w3.org/2000/svg" xmlns:xlink="http://www.w3.org/1999/xlink" x="0px" y="0px"
	 viewBox="0 0 850.4 850.4" style="enable-background:new 0 0 850.4 850.4;" xml:space="preserve">
<style type="text/css">
	.st0{fill:#FFFFFF;}
</style>
<g transform="matrix(1, 0, 0, 1, 0, 0)">
	<path id="Union_32-2" class="st0" d="M342.1,513.3c-13.3,0-24-10.7-24-24V475c-24.5,9.7-39.5-1.3-43.3-4.5
		c-4.1-3.4-8.6-6.1-18.3-25.8c20.6,19.1,48.7,2.4,60.6-15.5c0.3-0.4,0.6-0.9,0.9-1.3v-1.6c0-13.3,10.7-24,24-24h306
		c13.3,0,24,10.7,24,24v63c0,13.3-10.7,24-24,24H342.1z"/>
</g>
</svg>
