<svg xmlns="http://www.w3.org/2000/svg" width="28.706" height="26.311" viewBox="0 0 28.706 26.311">
    <path id="prefix__buy" fill="#001fff" d="M27.527 26.128H5.082l-.334-3.717a1.179 1.179 0 0 0-1.174-1.074h-2.4a1.179 1.179 0 1 0 0 2.358H2.5l1.356 15.106a4.535 4.535 0 0 0 1.7 3.073 3.573 3.573 0 1 0 6.175.983h6.452a3.574 3.574 0 1 0 3.356-2.357H8.373a2.189 2.189 0 0 1-2.013-1.327l18.84-1.108a1.179 1.179 0 0 0 1.075-.891l2.4-9.581a1.179 1.179 0 0 0-1.144-1.465zM8.365 45.291a1.216 1.216 0 1 1 1.216-1.216 1.218 1.218 0 0 1-1.216 1.216zm13.174 0a1.216 1.216 0 1 1 1.216-1.216 1.218 1.218 0 0 1-1.216 1.216zm2.661-9.529L6.043 36.829l-.749-8.343h20.723z" transform="translate(0 -21.338)"/>
</svg>
