<svg xmlns="http://www.w3.org/2000/svg" id="prefix__gavel-24px" width="34.242" height="34.242" viewBox="0 0 34.242 34.242">
    <path id="prefix__Контур_1" fill="none" d="M0 0h34.242v34.242H0z" data-name="Контур 1"/>
    <path id="prefix__Контур_2" fill="#848484" d="M2.427 29.182h14.267a1.427 1.427 0 1 1 0 2.853H2.427a1.427 1.427 0 1 1 0-2.853zm4.622-18.447L11.087 6.7 29.25 24.859a2.855 2.855 0 0 1-4.038 4.041zm12.113-8.076L23.2 6.7a2.859 2.859 0 0 1 0 4.038l-2.026 2.022-8.061-8.075 2.012-2.012a2.846 2.846 0 0 1 4.038-.014zM5.038 12.746l8.075 8.075-2.013 2.012a2.859 2.859 0 0 1-4.038 0L3.026 18.8a2.859 2.859 0 0 1 0-4.038z" data-name="Контур 2" transform="translate(.427 .779)"/>
</svg>
